<?xml version="1.0" encoding="iso-8859-1"?>
<!-- Generator: Adobe Illustrator 19.0.0, SVG Export Plug-In . SVG Version: 6.00 Build 0)  -->
<svg version="1.1" id="Capa_1" xmlns="http://www.w3.org/2000/svg" xmlns:xlink="http://www.w3.org/1999/xlink" x="0px" y="0px"
	 viewBox="0 0 512 512" style="enable-background:new 0 0 512 512;" xml:space="preserve">
<g>
	<g>
		<path d="M339.47,236.425c-4.56-3.268-10.12-4.559-15.654-3.646c-5.534,0.916-10.382,3.932-13.647,8.491l-36.364,50.773
			l-16.032-14.488c-4.422-3.997-10.36-5.93-16.294-5.303c-5.928,0.627-11.342,3.775-14.851,8.636
			c-6.258,8.672-4.863,20.738,3.245,28.065l33.225,30.026c3.879,3.507,8.92,5.424,14.064,5.424c0.734,0,1.473-0.039,2.209-0.118
			c0.133-0.014,0.266-0.028,0.397-0.045c5.801-0.722,11.08-3.859,14.485-8.612l50.063-69.901
			C351.058,256.312,348.884,243.168,339.47,236.425z M332.12,256.992l-50.064,69.901c-0.974,1.359-2.484,2.257-4.145,2.462
			c-0.013,0.001-0.078,0.008-0.092,0.01c-1.7,0.186-3.397-0.369-4.664-1.514l-33.226-30.026c-2.385-2.155-2.885-5.737-1.14-8.156
			c1.032-1.43,2.546-2.316,4.265-2.498c0.22-0.023,0.438-0.035,0.655-0.035c1.483,0,2.885,0.539,4.003,1.55l22.267,20.122
			c1.585,1.433,3.701,2.117,5.831,1.893c2.124-0.229,4.051-1.353,5.295-3.09l41.257-57.605c0.933-1.304,2.317-2.165,3.898-2.426
			c1.58-0.267,3.17,0.108,4.472,1.041C333.426,250.546,334.047,254.302,332.12,256.992z"/>
	</g>
</g>
<g>
	<g>
		<path d="M470.663,447.951l-36.734-295.753c-0.51-4.111-4.254-7.031-8.367-6.517c-4.11,0.51-7.028,4.256-6.518,8.366
			c38.213,313.326,38.528,296.496,35.433,300.47c-2.815,3.613-5.186,1.958-29.818,5.591c-4.11,0.51-7.028,4.256-6.518,8.367
			c0.471,3.797,3.703,6.576,7.433,6.576c0.871,0-0.253,0.069,26.494-3.233C463.8,470.365,472.122,459.687,470.663,447.951z"/>
	</g>
</g>
<g>
	<g>
		<path d="M429.615,117.462l-4.651-37.455c-1.458-11.748-12.158-20.059-23.868-18.594l-94.841,11.78V44.252
			c0-24.4-19.852-44.252-44.252-44.252s-44.252,19.852-44.252,44.252v36.079l-106.843-13.27
			c-11.673-1.464-22.405,6.811-23.869,18.594L50.448,380.25c-0.511,4.111,2.408,7.857,6.519,8.367
			c4.116,0.508,7.856-2.408,8.367-6.518l36.59-294.595c0.435-3.504,3.623-5.994,7.133-5.558l63.352,7.868
			c-49.274,6.417-48.997,5.393-54.054,7.637c-8.272,3.672-13.726,12.504-12.524,22.191l33.65,270.917l10.303,82.951l-88.006-10.931
			c-3.506-0.436-5.992-3.626-5.556-7.133l4.795-38.612c0.51-4.111-2.408-7.857-6.519-8.367c-4.118-0.514-7.856,2.408-8.367,6.518
			l-4.795,38.612c-1.455,11.733,6.86,22.413,18.596,23.868l91.826,11.406c2.07,11.162,12.428,18.702,23.645,17.309l57.859-7.186
			c109.292,13.517,103.545,13.002,106.016,13.002c10.491,0,19.828-7.797,21.188-18.761l1.266-10.198l30.039-3.731
			c4.11-0.51,7.028-4.256,6.518-8.367c-0.51-4.111-4.257-7.035-8.367-6.518c-34.519,4.287-165.637,20.572-216.367,26.873
			c-3.507,0.435-6.697-2.049-7.132-5.558c-47.872-391.12-47.497-368.686-44.398-372.662c3.042-3.907,2.121-1.488,95.726-13.777
			v30.928c0,17.646,14.356,32.002,32.002,32.002c17.645,0,32.002-14.356,32.002-32.002V91.351
			C407.261,76.438,403.705,74.52,407.661,77.599c3.664,2.856,1.762,4.001,7.067,41.712c0.51,4.111,4.249,7.025,8.367,6.518
			C427.206,125.32,430.125,121.573,429.615,117.462z M346.38,484.947c-0.943,4.87-0.027,8.212-3.216,10.697
			c-3.688,2.873-3.606,0.801-49.05-4.205L346.38,484.947z M266.751,130.228c0,9.375-7.626,17.001-17.001,17.001
			c-9.375,0-17.001-7.626-17.001-17.001V97.437l9.501-1.18v34.279c0,4.143,3.358,7.5,7.5,7.5s7.5-3.357,7.5-7.5V94.394l9.5-1.18
			V130.228z M266.751,78.098l-9.5,1.18V44.717c0-2.619,2.131-4.75,4.75-4.75c2.619,0,4.75,2.131,4.75,4.75V78.098z M291.252,75.055
			l-9.5,1.18V44.717c0-10.892-8.859-19.751-19.751-19.751c-10.891,0-19.751,8.859-19.751,19.751v36.424l-8.99,1.116l-0.511-0.063
			V44.252c0-16.13,13.123-29.252,29.252-29.252c16.13,0,29.252,13.122,29.252,29.252V75.055z"/>
	</g>
</g>
<g>
</g>
<g>
</g>
<g>
</g>
<g>
</g>
<g>
</g>
<g>
</g>
<g>
</g>
<g>
</g>
<g>
</g>
<g>
</g>
<g>
</g>
<g>
</g>
<g>
</g>
<g>
</g>
<g>
</g>
</svg>
