<?xml version="1.0" encoding="iso-8859-1"?>
<!-- Generator: Adobe Illustrator 19.0.0, SVG Export Plug-In . SVG Version: 6.00 Build 0)  -->
<svg version="1.1" id="Capa_1" xmlns="http://www.w3.org/2000/svg" xmlns:xlink="http://www.w3.org/1999/xlink" x="0px" y="0px"
	 viewBox="0 0 512.001 512.001" style="enable-background:new 0 0 512.001 512.001;" xml:space="preserve">
<g>
	<g>
		<path d="M218.402,167.267c-4.143,0-7.5,3.358-7.5,7.5c0,13.379-10.885,24.264-24.264,24.264c-13.38,0-24.265-10.885-24.265-24.264
			s10.885-24.264,24.265-24.264c4.143,0,7.5-3.358,7.5-7.5c0-4.142-3.357-7.5-7.5-7.5c-21.65,0-39.266,17.614-39.266,39.265
			c0,21.65,17.614,39.265,39.266,39.265s39.265-17.614,39.265-39.265C225.902,170.625,222.545,167.267,218.402,167.267z"/>
	</g>
</g>
<g>
	<g>
		<path d="M216.802,147.212c-3.14-2.699-7.875-2.347-10.576,0.795l-20.271,23.566l-5.423-6.271
			c-2.71-3.134-7.445-3.476-10.579-0.767c-3.133,2.71-3.477,7.446-0.767,10.579l11.111,12.849c2.417,2.796,5.783,2.617,5.683,2.594
			c2.182-0.003,4.254-0.956,5.676-2.609l25.941-30.159C220.298,154.649,219.943,149.914,216.802,147.212z"/>
	</g>
</g>
<g>
	<g>
		<path d="M355.25,182.789H252.669c-4.143,0-7.5,3.358-7.5,7.5c0,4.142,3.357,7.5,7.5,7.5H355.25c4.142,0,7.5-3.358,7.5-7.5
			C362.75,186.147,359.392,182.789,355.25,182.789z"/>
	</g>
</g>
<g>
	<g>
		<path d="M355.25,151.746H252.669c-4.143,0-7.5,3.358-7.5,7.5c0,4.142,3.357,7.5,7.5,7.5H355.25c4.142,0,7.5-3.358,7.5-7.5
			C362.75,155.104,359.392,151.746,355.25,151.746z"/>
	</g>
</g>
<g>
	<g>
		<path d="M218.402,359.984c-4.143,0-7.5,3.357-7.5,7.5c0,13.379-10.885,24.264-24.264,24.264c-13.38,0-24.265-10.885-24.265-24.264
			c0-13.38,10.885-24.265,24.265-24.265c4.143,0,7.5-3.358,7.5-7.5c0-4.143-3.357-7.5-7.5-7.5c-21.65,0-39.266,17.614-39.266,39.266
			c0,21.651,17.614,39.265,39.266,39.265s39.265-17.613,39.265-39.265C225.902,363.342,222.545,359.984,218.402,359.984z"/>
	</g>
</g>
<g>
	<g>
		<path d="M216.802,339.929c-3.14-2.702-7.875-2.347-10.576,0.795l-20.271,23.566l-5.423-6.271
			c-2.71-3.132-7.445-3.477-10.579-0.767c-3.133,2.709-3.477,7.445-0.767,10.579c10.147,10.728,11.15,15.442,16.784,15.442
			c0.1-0.022,3.307,0.158,5.686-2.609l25.941-30.159C220.298,347.365,219.943,342.63,216.802,339.929z"/>
	</g>
</g>
<g>
	<g>
		<path d="M355.25,375.505H252.669c-4.143,0-7.5,3.357-7.5,7.5s3.357,7.5,7.5,7.5H355.25c4.142,0,7.5-3.357,7.5-7.5
			S359.392,375.505,355.25,375.505z"/>
	</g>
</g>
<g>
	<g>
		<path d="M355.25,344.463H252.669c-4.143,0-7.5,3.358-7.5,7.5c0,4.143,3.357,7.5,7.5,7.5H355.25c4.142,0,7.5-3.357,7.5-7.5
			S359.392,344.463,355.25,344.463z"/>
	</g>
</g>
<g>
	<g>
		<path d="M218.402,263.626c-4.143,0-7.5,3.357-7.5,7.5c0,13.379-10.885,24.264-24.264,24.264c-13.38,0-24.265-10.885-24.265-24.264
			c0-13.38,10.885-24.265,24.265-24.265c4.143,0,7.5-3.358,7.5-7.5s-3.357-7.5-7.5-7.5c-21.65,0-39.266,17.614-39.266,39.266
			s17.614,39.265,39.266,39.265s39.265-17.613,39.265-39.265C225.902,266.983,222.545,263.626,218.402,263.626z"/>
	</g>
</g>
<g>
	<g>
		<path d="M216.802,243.568c-3.14-2.7-7.875-2.346-10.576,0.796l-20.271,23.566l-5.423-6.271c-2.71-3.133-7.445-3.476-10.579-0.767
			c-3.133,2.709-3.477,7.445-0.767,10.579c10.147,10.728,11.15,15.442,16.784,15.442c0.1-0.022,3.307,0.158,5.686-2.609
			l25.941-30.159C220.298,251.005,219.943,246.269,216.802,243.568z"/>
	</g>
</g>
<g>
	<g>
		<path d="M355.25,279.147H252.669c-4.143,0-7.5,3.357-7.5,7.5s3.357,7.5,7.5,7.5H355.25c4.142,0,7.5-3.357,7.5-7.5
			S359.392,279.147,355.25,279.147z"/>
	</g>
</g>
<g>
	<g>
		<path d="M355.25,248.104H252.669c-4.143,0-7.5,3.358-7.5,7.5c0,4.142,3.357,7.501,7.5,7.501H355.25c4.142,0,7.5-3.358,7.5-7.501
			C362.75,251.462,359.392,248.104,355.25,248.104z"/>
	</g>
</g>
<g>
	<g>
		<path d="M431.565,341.963c4.143,0,7.5-3.357,7.5-7.5V63.914c0-12.91-10.504-23.413-23.414-23.413H348.25
			c-3.028-7.881-10.657-13.5-19.591-13.5h-26.566v-6c0-11.58-9.421-21-21-21h-50.183c-11.579,0-21,9.42-21,21v6h-35.253
			c-8.934,0-16.563,5.619-19.591,13.5H96.349c-12.91,0-23.413,10.503-23.413,23.413v77.832c0,4.142,3.357,7.5,7.5,7.5
			c4.143,0,7.5-3.358,7.5-7.5V63.914c0-4.639,3.774-8.413,8.413-8.413h58.691c2.486,6.481,8.284,11.724,15.734,13.125
			c2.878,0.54,3.012,0.336,22.977,0.375v7.25h-59.975c-14.247,0-25.838,11.591-25.838,25.838v332.946
			c0,25.493,20.515,47.583,46.935,47.583h237.753c12.017,0,23.099-4.56,31.439-12.308v18.253c0,4.708-3.879,8.413-8.414,8.413
			c-335.128-0.02-319.547,0.052-320.623-0.122c-4.168-0.668-7.092-4.252-7.092-8.291V176.746c0-4.142-3.357-7.5-7.5-7.5
			c-4.143,0-7.5,3.358-7.5,7.5v311.816c0,12.943,10.568,23.413,23.414,23.413c339.889-0.16,320.116,0.494,325.404-0.825
			c10.195-2.751,17.311-12.031,17.311-22.588v-119.1c0-4.142-3.357-7.5-7.5-7.5c-4.143,0-7.5,3.358-7.5,7.5v58.982
			c-2.713-0.446-2.272-0.153-20.923-0.246V102.065c0-14.234-11.58-25.814-25.815-25.814h-59.078v-7.25
			c10.316-0.035,10.462,0.076,12.354-0.099c8.112-0.754,14.892-6.149,17.671-13.401h67.376c4.64,0,8.414,3.774,8.414,8.413v270.549
			C424.065,338.606,427.423,341.963,431.565,341.963z M224.909,21c0-3.309,2.691-6,6-6h50.183c3.309,0,6,2.691,6,6v6h-62.183V21z
			 M377.327,91.251c5.963,0,10.815,4.852,10.815,10.814v326.132h-119.75c-4.143,0-7.5,3.357-7.5,7.5s3.357,7.5,7.5,7.5
			c160.345,0.197,155.172-1.042,154.299,1.854c-4.07,13.497-16.153,22.565-30.066,22.565h-203.62
			c5.361-5.868,9.279-13.189,11.146-21.474c0.391-1.734,1.891-2.945,3.647-2.945h29.592c4.143,0,7.5-3.357,7.5-7.5
			s-3.357-7.5-7.5-7.5h-29.592c-8.82,0-16.338,6.023-18.28,14.648c-3.529,15.658-17.197,25.005-31.195,24.766
			c-17.306-0.289-31.385-14.903-31.385-32.577V102.089c0-5.976,4.862-10.838,10.838-10.838h59.975v1.25c0,11.58,9.421,21,21,21
			h82.497c11.579,0,21-9.42,21-21v-1.25H377.327z M303.249,91.251v1.25c0,3.309-2.691,6-6,6h-82.497c-3.309,0-6-2.691-6-6v-1.25
			H303.249z M208.752,76.251v-7.25h94.497v7.25H208.752z M328.659,54.001c-15.178,0-135.528,0-154.002,0c-3.309,0-6-2.691-6-6
			c0-3.309,2.691-6,6-6c14.965,0,134.327,0,154.002,0c3.309,0,6,2.691,6,6C334.659,51.31,331.967,54.001,328.659,54.001z"/>
	</g>
</g>
<g>
</g>
<g>
</g>
<g>
</g>
<g>
</g>
<g>
</g>
<g>
</g>
<g>
</g>
<g>
</g>
<g>
</g>
<g>
</g>
<g>
</g>
<g>
</g>
<g>
</g>
<g>
</g>
<g>
</g>
</svg>
