<svg xmlns="http://www.w3.org/2000/svg" viewBox="0 0 512 512"><path d="M429.9 130.4H298.3l91.1-36.5c4.2-1.7 6.2-6.4 4.5-10.6 -1.7-4.2-6.4-6.2-10.6-4.5l-77.3 30.9c22.1-13.8 45.3-29.9 53.6-40.8 7-9.1 9.9-20.4 8.4-31.8 -1.5-11.4-7.4-21.5-16.5-28.4 -18.8-14.4-45.8-10.7-60.2 8.1 -7.1 9.3-16.5 30.8-28.1 64.1 -2.7 7.7-5.2 15.2-7.3 21.8 -2.2-6.6-4.6-14.1-7.3-21.8 -11.6-33.2-21-54.8-28.1-64.1C206.2-1.9 179.2-5.6 160.4 8.8c-9.1 7-15 17-16.5 28.4 -1.5 11.4 1.5 22.6 8.4 31.8 8.3 10.9 31.5 26.9 53.6 40.8l-77.3-30.9c-4.2-1.7-8.9 0.4-10.6 4.5 -1.7 4.2 0.4 8.9 4.5 10.6l91.1 36.5H82.1c0 0 0 0 0 0 -14.1 0-25.5 11.5-25.5 25.5v330.5c0 14.1 11.5 25.5 25.5 25.5h347.9c14.1 0 25.5-11.5 25.5-25.5V156h0C455.5 141.9 444 130.4 429.9 130.4zM304.4 26.8c5.2-6.9 13.2-10.5 21.2-10.5 5.6 0 11.3 1.8 16.1 5.4 5.7 4.3 9.3 10.6 10.2 17.6 0.9 7.1-0.9 14-5.2 19.7 -9.6 12.6-49.6 37.5-76.8 53.5C279.5 83 294.7 39.4 304.4 26.8zM165.3 59.1c-4.3-5.7-6.2-12.7-5.2-19.7 1-7.1 4.6-13.3 10.2-17.6 4.8-3.7 10.5-5.4 16.1-5.4 8 0 16 3.6 21.2 10.5 9.7 12.7 24.9 56.2 34.4 85.8C214.8 96.6 174.9 71.7 165.3 59.1zM221.8 146.7v41.7l-41.7-41.7H221.8zM157 146.7l64.8 64.8v55.2L101.7 146.7H157zM72.8 156c0-4.1 2.7-7.5 6.3-8.8l142.6 142.6v55.2L72.8 196.1V156zM82.1 495.7c-5.1 0-9.2-4.1-9.2-9.2v-32.5l41.7 41.7H82.1zM137.6 495.7l-64.8-64.8v-55.2l120 120H137.6zM221.8 495.7h-5.9v0L72.8 352.6v-55.2l29.6 29.6c1.6 1.6 3.7 2.4 5.8 2.4s4.2-0.8 5.8-2.4c3.2-3.2 3.2-8.3 0-11.5l-41.1-41.1v-55.2l148.9 148.9v55.2l-81.7-81.7c-3.2-3.2-8.3-3.2-11.5 0 -3.2 3.2-3.2 8.3 0 11.5l93.3 93.3V495.7zM273.9 495.7h-35.9V146.7h35.9V495.7zM290.2 146.7H313.5l23.7 23.7c1.6 1.6 3.7 2.4 5.8 2.4 2.1 0 4.2-0.8 5.8-2.4 3.2-3.2 3.2-8.3 0-11.5l-12.2-12.2h55.2l47.4 47.4v55.2l-64.4-64.4c-3.2-3.2-8.3-3.2-11.5 0 -3.2 3.2-3.2 8.3 0 11.5l75.9 75.9v55.2L290.2 178.7V146.7zM290.2 495.7v-59.1l59.1 59.1H290.2zM372.4 495.7l-82.2-82.2v-55.2l137.4 137.4H372.4zM439.2 484.2L290.2 335.2v-55.2l148.9 148.9V484.2zM439.2 405.9L290.2 257v-55.2l148.9 148.9V405.9zM439.2 171.1l-24.3-24.3h15.1c5.1 0 9.2 4.1 9.2 9.2V171.1z"/></svg>