<?xml version="1.0" encoding="iso-8859-1"?>
<!-- Generator: Adobe Illustrator 19.0.0, SVG Export Plug-In . SVG Version: 6.00 Build 0)  -->
<svg version="1.1" id="Capa_1" xmlns="http://www.w3.org/2000/svg" xmlns:xlink="http://www.w3.org/1999/xlink" x="0px" y="0px"
	 viewBox="0 0 512 512" style="enable-background:new 0 0 512 512;" xml:space="preserve">
<g>
	<g>
		<path d="M504.396,460.706h-14.698V79.221h14.694c4.199,0,7.604-3.405,7.604-7.604V37.145c0-4.199-3.405-7.604-7.604-7.604H448.16
			c-4.199,0-7.604,3.405-7.604,7.604s3.405,7.604,7.604,7.604h48.628v19.263h-14.694h-120.95V44.749h51.53
			c4.199,0,7.604-3.405,7.604-7.604s-3.405-7.604-7.604-7.604h-51.53V8.479c0-4.199-3.405-7.604-7.604-7.604H158.458
			c-4.199,0-7.604,3.405-7.604,7.604v21.062H7.604C3.405,29.541,0,32.946,0,37.145v34.471c0,4.199,3.405,7.604,7.604,7.604h14.704
			v276.056c0,4.199,3.405,7.604,7.604,7.604c4.199,0,7.604-3.405,7.604-7.604V79.221h113.339v98.85c0,4.199,3.405,7.604,7.604,7.604
			h195.082c4.199,0,7.604-3.405,7.604-7.604v-98.85H474.49v345.727H338.63v-45.785h10.349c3.194,0,6.209-1.837,7.373-4.81
			c1.433-3.657-0.128-7.711-3.5-9.506l-93.278-49.653c-2.234-1.189-4.913-1.189-7.147,0l-93.012,49.511
			c-2.82,1.501-4.618,4.539-4.249,7.712c0.454,3.901,3.737,6.746,7.556,6.746h10.649v45.785H37.516v-34.185
			c0-4.199-3.405-7.604-7.604-7.604c-4.199,0-7.604,3.405-7.604,7.604v69.942H7.604c-4.199,0-7.604,3.405-7.604,7.604v35.211
			c0,4.199,3.405,7.604,7.604,7.604h496.792c4.199,0,7.604-3.405,7.604-7.604v-35.211C512,464.111,508.595,460.706,504.396,460.706z
			 M150.854,64.013H29.912H15.208V44.749h135.647V64.013z M345.937,37.067c0,0.026-0.004,0.052-0.004,0.078v34.471
			c0,0.026,0.004,0.052,0.004,0.078v98.772H166.062V71.636c0-0.007,0.001-0.013,0.001-0.019V37.145c0-0.007-0.001-0.013-0.001-0.019
			V16.083h179.874V37.067z M338.63,440.155h135.86v20.551H338.63V440.155z M256,330.52l62.811,33.434H193.189L256,330.52z
			 M323.422,379.162v81.544h-61.843v-81.544H323.422z M188.578,379.162h57.793v0v81.544h-57.793V379.162z M37.516,440.155H173.37
			v20.551H37.516V440.155z M496.792,495.918H15.208v-20.003h14.694c0.003,0,0.006,0,0.01,0h151.062h150.052h151.068
			c0.003,0,0.006,0,0.01,0h14.688V495.918z"/>
	</g>
</g>
<g>
	<g>
		<path d="M122.971,92.401H70.464c-4.2,0-7.604,3.405-7.604,7.604v78.066c0,4.199,3.404,7.604,7.604,7.604h52.507
			c4.2,0,7.604-3.405,7.604-7.604v-78.066C130.575,95.805,127.172,92.401,122.971,92.401z M115.367,170.467H78.068v-62.858h37.299
			V170.467z"/>
	</g>
</g>
<g>
	<g>
		<path d="M441.536,92.401h-52.508c-4.2,0-7.604,3.405-7.604,7.604v78.066c0,4.199,3.404,7.604,7.604,7.604h52.508
			c4.2,0,7.604-3.405,7.604-7.604v-78.066C449.14,95.805,445.736,92.401,441.536,92.401z M433.932,170.467h-37.3v-62.858h37.3
			V170.467z"/>
	</g>
</g>
<g>
	<g>
		<path d="M441.536,202.912h-52.508c-4.2,0-7.604,3.405-7.604,7.604v78.067c0,4.199,3.404,7.604,7.604,7.604h52.508
			c4.2,0,7.604-3.405,7.604-7.604v-78.067C449.14,206.316,445.736,202.912,441.536,202.912z M433.932,280.98h-37.3v-62.859h37.3
			V280.98z"/>
	</g>
</g>
<g>
	<g>
		<path d="M122.971,202.912H70.464c-4.2,0-7.604,3.405-7.604,7.604v78.067c0,4.199,3.404,7.604,7.604,7.604h52.507
			c4.2,0,7.604-3.405,7.604-7.604v-78.067C130.575,206.316,127.172,202.912,122.971,202.912z M115.367,280.98H78.068v-62.859h37.299
			V280.98z"/>
	</g>
</g>
<g>
	<g>
		<path d="M335.348,202.912H282.84c-4.2,0-7.604,3.405-7.604,7.604v78.067c0,4.199,3.404,7.604,7.604,7.604h52.508
			c4.2,0,7.604-3.405,7.604-7.604v-78.067C342.952,206.316,339.548,202.912,335.348,202.912z M327.744,280.98h-37.3v-62.859h37.3
			V280.98z"/>
	</g>
</g>
<g>
	<g>
		<path d="M229.159,202.912h-52.507c-4.2,0-7.604,3.405-7.604,7.604v78.067c0,4.199,3.404,7.604,7.604,7.604h52.507
			c4.2,0,7.604-3.405,7.604-7.604v-78.067C236.763,206.316,233.359,202.912,229.159,202.912z M221.555,280.98h-37.299v-62.859
			h37.299V280.98z"/>
	</g>
</g>
<g>
	<g>
		<path d="M441.536,313.425h-52.508c-4.2,0-7.604,3.405-7.604,7.604v78.066c0,4.199,3.404,7.604,7.604,7.604h52.508
			c4.2,0,7.604-3.405,7.604-7.604v-78.066C449.14,316.829,445.736,313.425,441.536,313.425z M433.932,391.491h-37.3v-62.858h37.3
			V391.491z"/>
	</g>
</g>
<g>
	<g>
		<path d="M122.971,313.425H70.464c-4.2,0-7.604,3.405-7.604,7.604v78.066c0,4.199,3.404,7.604,7.604,7.604h52.507
			c4.2,0,7.604-3.405,7.604-7.604v-78.066C130.575,316.829,127.172,313.425,122.971,313.425z M115.367,391.491H78.068v-62.858
			h37.299V391.491z"/>
	</g>
</g>
<g>
	<g>
		<path d="M325.019,27.007H186.981c-4.2,0-7.604,3.405-7.604,7.604v31.112c0,4.199,3.404,7.604,7.604,7.604h138.037
			c4.2,0,7.604-3.405,7.604-7.604V34.611C332.623,30.411,329.219,27.007,325.019,27.007z M317.415,58.118H194.585V42.215h122.829
			V58.118z"/>
	</g>
</g>
<g>
	<g>
		<path d="M325.019,83.574H186.981c-4.2,0-7.604,3.405-7.604,7.604v31.112c0,4.199,3.404,7.604,7.604,7.604h45.858v24.487
			c0,4.199,3.404,7.604,7.604,7.604h31.112c4.2,0,7.604-3.405,7.604-7.604v-24.487h45.859c4.2,0,7.604-3.405,7.604-7.604V91.178
			C332.623,86.979,329.219,83.574,325.019,83.574z M317.415,114.685h-45.859c-4.2,0-7.604,3.405-7.604,7.604v24.487h-15.904v-24.487
			c0-4.199-3.404-7.604-7.604-7.604h-45.858V98.782h122.829V114.685z"/>
	</g>
</g>
<g>
</g>
<g>
</g>
<g>
</g>
<g>
</g>
<g>
</g>
<g>
</g>
<g>
</g>
<g>
</g>
<g>
</g>
<g>
</g>
<g>
</g>
<g>
</g>
<g>
</g>
<g>
</g>
<g>
</g>
</svg>
