<svg xmlns="http://www.w3.org/2000/svg" viewBox="0 0 512 512"><path d="M401.8 160.8c-10.3 0-18.7 8.4-18.7 18.7V298.2c0 10.3 8.4 18.7 18.7 18.7 10.3 0 18.7-8.4 18.7-18.7V179.6C420.5 169.3 412.1 160.8 401.8 160.8zM405.9 298.2c0 2.2-1.8 4.1-4.1 4.1 -2.2 0-4.1-1.8-4.1-4.1V179.6c0-2.2 1.8-4.1 4.1-4.1 2.2 0 4.1 1.8 4.1 4.1V298.2z"/><path d="M468.6 0H43.4c-14.5 0-26.3 11.8-26.3 26.3v351.5c0 4.1 3.3 7.3 7.3 7.3s7.3-3.3 7.3-7.3V26.3c0-6.4 5.2-11.6 11.6-11.6h425.3c6.4 0 11.6 5.2 11.6 11.6v425.3c0 6.4-5.2 11.6-11.6 11.6H43.4c-6.4 0-11.6-5.2-11.6-11.6v-26.5c0-4.1-3.3-7.3-7.3-7.3s-7.3 3.3-7.3 7.3v26.5c0 14.5 11.8 26.3 26.3 26.3h14.2l3.2 19.7C61.9 505.8 69 512 77.4 512h29.5c8.4 0 15.5-6.2 16.6-14.5l3.2-19.7h258.7l3.2 19.7c1.1 8.3 8.2 14.5 16.6 14.5h29.5c8.4 0 15.5-6.2 16.6-14.5l3.2-19.7h14.2c14.5 0 26.3-11.8 26.3-26.3V26.3C494.9 11.8 483.1 0 468.6 0zM108.9 495.2c0 0.1 0 0.2 0 0.3 -0.1 1-1 1.8-2 1.8H77.4c-1 0-1.9-0.8-2-1.8 0-0.1 0-0.2 0-0.3L72.5 477.8h39.3L108.9 495.2zM436.7 495.2c0 0.1 0 0.2 0 0.3 -0.1 1-1 1.8-2 1.8h-29.5c-1 0-1.9-0.8-2-1.8 0-0.1 0-0.2 0-0.3L400.2 477.8h39.3L436.7 495.2z"/><path d="M256 125.5c-62.5 0-113.4 50.9-113.4 113.4 0 62.5 50.9 113.4 113.4 113.4s113.4-50.9 113.4-113.4S318.5 125.5 256 125.5zM256 337.6c-54.4 0-98.7-44.3-98.7-98.7 0-54.4 44.3-98.7 98.7-98.7s98.7 44.3 98.7 98.7S310.4 337.6 256 337.6z"/><path d="M441.9 95.2c4.1 0 7.3-3.3 7.3-7.3V69.1c0-13-10.6-23.6-23.6-23.6H85.9c-13 0-23.6 10.6-23.6 23.6v38.4h-2.7c-7.1 0-12.8 5.8-12.8 12.8v31.1c0 7.1 5.8 12.8 12.8 12.8h2.7v149.3h-2.7c-7.1 0-12.8 5.8-12.8 12.8v31.1c0 7.1 5.8 12.8 12.8 12.8h2.7v38.4c0 13 10.6 23.6 23.6 23.6h339.7c13 0 23.6-10.6 23.6-23.6V134.4c0-4.1-3.3-7.3-7.3-7.3 -4.1 0-7.3 3.3-7.3 7.3v274.3c0 4.9-4 8.9-8.9 8.9H85.9c-4.9 0-8.9-4-8.9-8.9v-38.4h3.7c7.1 0 12.8-5.8 12.8-12.8v-31.1c0-7.1-5.8-12.8-12.8-12.8h-3.7V164.3h3.7c7.1 0 12.8-5.8 12.8-12.8v-31.1c0-7.1-5.8-12.8-12.8-12.8h-3.7v-38.4c0-4.9 4-8.9 8.9-8.9h339.7c4.9 0 8.9 4 8.9 8.9v18.8C434.5 91.9 437.8 95.2 441.9 95.2zM78.9 328.2v27.4h-9.2 -8.2v-27.4h8.2H78.9zM78.9 122.2v27.4h-9.2 -8.2v-27.4h8.2c0 0 0 0 0 0H78.9z"/><path d="M256 154.3c-46.7 0-84.6 38-84.6 84.6s38 84.6 84.6 84.6 84.6-38 84.6-84.6S302.7 154.3 256 154.3zM325.6 231.6h-19c-1.2-8.6-4.6-16.6-9.6-23.2l13.4-13.4C318.6 205.2 324.1 217.8 325.6 231.6zM263.3 169.3c13.8 1.4 26.4 6.9 36.6 15.2l-13.4 13.4c-6.7-5-14.6-8.4-23.2-9.6V169.3zM248.7 169.3v19c-8.6 1.2-16.6 4.6-23.2 9.6l-13.4-13.4C222.3 176.3 234.9 170.8 248.7 169.3zM201.7 194.9l13.4 13.4c-5 6.7-8.4 14.6-9.6 23.2h-19C187.9 217.8 193.4 205.2 201.7 194.9zM186.4 246.2h19c1.2 8.6 4.6 16.6 9.6 23.2l-13.4 13.4C193.4 272.6 187.9 260 186.4 246.2zM248.7 308.5c-13.8-1.4-26.4-6.9-36.6-15.2l13.4-13.4c6.7 5 14.6 8.4 23.2 9.6V308.5zM219.6 238.9c0-20.1 16.3-36.4 36.4-36.4s36.4 16.3 36.4 36.4c0 20.1-16.3 36.4-36.4 36.4C235.9 275.3 219.6 259 219.6 238.9zM263.3 308.5v-19c8.6-1.2 16.6-4.6 23.2-9.6l13.4 13.4C289.7 301.5 277.1 307 263.3 308.5zM310.3 282.9l-13.4-13.4c5-6.7 8.4-14.6 9.6-23.2h19C324.1 260 318.6 272.6 310.3 282.9z"/></svg>