<?xml version="1.0" encoding="iso-8859-1"?>
<!-- Generator: Adobe Illustrator 19.0.0, SVG Export Plug-In . SVG Version: 6.00 Build 0)  -->
<svg version="1.1" id="Capa_1" xmlns="http://www.w3.org/2000/svg" xmlns:xlink="http://www.w3.org/1999/xlink" x="0px" y="0px"
	 viewBox="0 0 512.001 512.001" style="enable-background:new 0 0 512.001 512.001;" xml:space="preserve">
<g>
	<g>
		<path d="M278.861,404.092H134.447c-4.187,0-7.581,3.394-7.581,7.581s3.394,7.581,7.581,7.581H278.86
			c4.187,0,7.581-3.394,7.581-7.581S283.046,404.092,278.861,404.092z"/>
	</g>
</g>
<g>
	<g>
		<path d="M278.861,432.071H134.447c-4.187,0-7.581,3.394-7.581,7.581s3.394,7.581,7.581,7.581H278.86
			c4.187,0,7.581-3.394,7.581-7.581S283.046,432.071,278.861,432.071z"/>
	</g>
</g>
<g>
	<g>
		<path d="M186.499,460.048h-52.051c-4.187,0-7.581,3.394-7.581,7.581s3.394,7.581,7.581,7.581h52.051
			c4.187,0,7.581-3.394,7.581-7.581S190.685,460.048,186.499,460.048z"/>
	</g>
</g>
<g>
	<g>
		<circle cx="206.654" cy="163.674" r="7.5"/>
	</g>
</g>
<g>
	<g>
		<path d="M269.549,279.922H143.76c-12.594,0-22.839,10.246-22.839,22.839v14.786c0,4.142,3.358,7.5,7.5,7.5s7.5-3.358,7.5-7.5
			v-14.786c0-4.323,3.517-7.84,7.84-7.84h125.789c4.323,0,7.84,3.517,7.84,7.84v65.595c0,4.323-3.517,7.841-7.84,7.841h-25.447
			v-7.236c0-6.78-3.415-13-9.134-16.639l-2.189-1.393c4.565-5.716,7.304-12.952,7.304-20.819c0-18.432-14.995-33.427-33.428-33.427
			c-18.432,0-33.428,14.995-33.428,33.427c0,7.867,2.739,15.102,7.303,20.819l-2.189,1.393c-5.72,3.64-9.134,9.86-9.134,16.639
			v7.236H143.76c-4.323,0-7.84-3.518-7.84-7.841v-15.458c0-4.142-3.358-7.5-7.5-7.5s-7.5,3.358-7.5,7.5v15.458
			c0,12.594,10.246,22.84,22.839,22.84h125.789c12.594,0,22.839-10.247,22.839-22.84v-65.595
			C292.388,290.167,282.142,279.922,269.549,279.922z M206.654,311.682c10.162,0,18.428,8.267,18.428,18.427
			c0,10.162-8.267,18.428-18.428,18.428s-18.428-8.267-18.428-18.428C188.226,319.948,196.493,311.682,206.654,311.682z
			 M229.104,376.196h-44.896v-7.236h-0.002c0-1.624,0.817-3.113,2.188-3.985l6.755-4.299c4.133,1.833,8.701,2.86,13.506,2.86
			c4.805,0,9.372-1.027,13.506-2.86l6.756,4.299c1.37,0.872,2.188,2.361,2.188,3.985V376.196z"/>
	</g>
</g>
<g>
	<g>
		<path d="M400.514,42.161c-15.078-21.589-37.664-36.015-63.593-40.618c-25.93-4.601-52.099,1.167-73.688,16.246
			c-30.083,21.011-68.029,72.609-77.844,117.035c-9.159,6.617-15.135,17.377-15.135,29.514v28.068h-9.833
			c-14.018,0-25.422,11.405-25.422,25.422v8.906h-18.895c-12.356,0-22.408,10.052-22.408,22.408v240.45
			c0,12.356,10.052,22.408,22.408,22.408h181.098c12.356,0,22.408-10.052,22.408-22.408V249.142
			c0-12.356-10.053-22.408-22.408-22.408h-18.895v-8.906c0-14.019-11.404-25.422-25.422-25.422h-9.833v-10.272
			c4.772,0.67,9.972,1.01,15.523,1.01c6.013,0,12.435-0.395,19.154-1.187c24.255-2.86,59.964-12.647,81.049-27.374
			c30.859-21.555,38.431-64.199,16.875-95.06c-10.219-14.63-25.45-24.489-42.971-27.881c5.067-1.115,10.357-1.695,15.749-1.434
			c14.85,0.723,28.307,7.756,40.012,20.886c12.609,18.239,17.424,40.285,13.545,62.133c-3.902,21.984-16.133,41.133-34.438,53.918
			c-16.747,11.698-44.488,22.275-72.395,27.605c-4.068,0.777-6.683,4.695-5.96,8.773c1.419,8.009,8.299,6.051,8.774,5.96
			c29.849-5.7,59.802-17.21,78.17-30.041c21.589-15.079,36.015-37.665,40.618-63.593C421.364,89.92,415.594,63.75,400.514,42.161z
			 M185.255,164.337c0-11.8,9.6-21.399,21.399-21.399c11.8,0,21.399,9.6,21.399,21.399v28.068h-42.799V164.337z M278.308,250.638
			v-8.905c0,0,0.028,0.003,0.05,0.005v-0.005h18.846c4.085,0.001,7.409,3.324,7.409,7.409v240.45c0,4.085-3.323,7.409-7.409,7.409
			H116.105c-4.085,0-7.409-3.324-7.409-7.409v-240.45c0-4.085,3.324-7.409,7.409-7.409H135v8.905
			c0,14.019,11.405,25.422,25.422,25.422h92.463C266.904,276.06,278.308,264.655,278.308,250.638z M252.885,207.406
			c5.747,0,10.423,4.676,10.423,10.423v32.81c0,5.748-4.676,10.423-10.423,10.423h-92.463c-5.747,0-10.423-4.676-10.423-10.423
			v-32.81c0-5.748,4.676-10.423,10.423-10.423H252.885z M363.36,68.113c16.818,24.08,10.912,57.354-13.169,74.174
			c-13.292,9.285-42.187,20.997-74.217,24.774c-12.475,1.47-23.96,1.418-32.921-0.108c0,0,0.776-19.845-11.585-29.209
			c27.836-58.728,57.72-82.8,57.721-82.8c11.644-8.132,25.78-11.236,39.806-8.748C343.022,48.685,355.227,56.469,363.36,68.113z
			 M218.261,129.848c-7.502-2.476-14.276-1.83-15.581-1.688c11.958-38.134,44.148-80.616,69.145-98.075
			c18.086-12.634,39.967-17.545,61.695-13.894C305.468,20.869,255.988,43.523,218.261,129.848z"/>
	</g>
</g>
<g>
</g>
<g>
</g>
<g>
</g>
<g>
</g>
<g>
</g>
<g>
</g>
<g>
</g>
<g>
</g>
<g>
</g>
<g>
</g>
<g>
</g>
<g>
</g>
<g>
</g>
<g>
</g>
<g>
</g>
</svg>
