<?xml version="1.0" encoding="iso-8859-1"?>
<!-- Generator: Adobe Illustrator 19.0.0, SVG Export Plug-In . SVG Version: 6.00 Build 0)  -->
<svg version="1.1" id="Capa_1" xmlns="http://www.w3.org/2000/svg" xmlns:xlink="http://www.w3.org/1999/xlink" x="0px" y="0px"
	 viewBox="0 0 512 512" style="enable-background:new 0 0 512 512;" xml:space="preserve">
<g>
	<g>
		<path d="M171.784,99.356h-16.954c-10.506,0-19.052,8.547-19.052,19.052v16.954c0,10.505,8.546,19.052,19.052,19.052h16.954
			c10.505,0,19.052-8.547,19.052-19.052v-16.954C190.836,107.903,182.29,99.356,171.784,99.356z M175.836,135.362
			c0,2.234-1.817,4.052-4.052,4.052H154.83c-2.234,0-4.052-1.817-4.052-4.052v-16.954c0-2.234,1.817-4.052,4.052-4.052h16.954
			c2.234,0,4.052,1.818,4.052,4.052V135.362z"/>
	</g>
</g>
<g>
	<g>
		<path d="M368.724,105.303H209.746c-4.142,0-7.5,3.357-7.5,7.5s3.358,7.5,7.5,7.5h158.978c4.143,0,7.5-3.357,7.5-7.5
			S372.867,105.303,368.724,105.303z"/>
	</g>
</g>
<g>
	<g>
		<path d="M281.602,133.468h-71.856c-4.142,0-7.5,3.357-7.5,7.5s3.358,7.5,7.5,7.5h71.856c4.143,0,7.5-3.357,7.5-7.5
			S285.745,133.468,281.602,133.468z"/>
	</g>
</g>
<g>
	<g>
		<path d="M171.784,172.977H154.83c-10.505,0-19.052,8.547-19.052,19.052v16.954c0,10.505,8.546,19.052,19.052,19.052h16.954
			c10.505,0,19.052-8.547,19.052-19.052v-16.954C190.836,181.523,182.289,172.977,171.784,172.977z M175.836,208.982
			c0,2.234-1.817,4.052-4.052,4.052H154.83c-2.234,0-4.052-1.817-4.052-4.052v-16.954c0-2.234,1.817-4.052,4.052-4.052h16.954
			c2.234,0,4.052,1.817,4.052,4.052V208.982z"/>
	</g>
</g>
<g>
	<g>
		<path d="M368.724,178.923H209.746c-4.142,0-7.5,3.357-7.5,7.5s3.358,7.5,7.5,7.5h158.978c4.143,0,7.5-3.357,7.5-7.5
			S372.867,178.923,368.724,178.923z"/>
	</g>
</g>
<g>
	<g>
		<path d="M324.184,207.088H209.746c-4.142,0-7.5,3.357-7.5,7.5s3.358,7.5,7.5,7.5h114.438c4.143,0,7.5-3.357,7.5-7.5
			S328.327,207.088,324.184,207.088z"/>
	</g>
</g>
<g>
	<g>
		<path d="M171.784,246.597H154.83c-10.505,0-19.052,8.547-19.052,19.052v16.954c0,10.505,8.546,19.052,19.052,19.052h16.954
			c10.505,0,19.052-8.547,19.052-19.052v-16.954C190.836,255.144,182.289,246.597,171.784,246.597z M175.836,282.603
			c0,2.234-1.817,4.052-4.052,4.052H154.83c-2.234,0-4.052-1.817-4.052-4.052v-16.954c0-2.234,1.817-4.052,4.052-4.052h16.954
			c2.234,0,4.052,1.817,4.052,4.052V282.603z"/>
	</g>
</g>
<g>
	<g>
		<path d="M368.724,252.543H209.746c-4.142,0-7.5,3.357-7.5,7.5s3.358,7.5,7.5,7.5h158.978c4.143,0,7.5-3.357,7.5-7.5
			S372.867,252.543,368.724,252.543z"/>
	</g>
</g>
<g>
	<g>
		<path d="M240.94,280.708h-31.194c-4.142,0-7.5,3.357-7.5,7.5s3.358,7.5,7.5,7.5h31.194c4.142,0,7.5-3.357,7.5-7.5
			S245.082,280.708,240.94,280.708z"/>
	</g>
</g>
<g>
	<g>
		<path d="M416.157,10.519H320.29C316.378,4.211,309.394,0,301.443,0H210.56c-7.952,0-14.935,4.211-18.846,10.519H95.846
			c-13.488,0-24.461,10.973-24.461,24.461v452.56c0,13.487,10.973,24.46,24.461,24.46h320.31c13.487,0,24.46-10.973,24.46-24.46
			V34.979C440.616,21.491,429.644,10.519,416.157,10.519z M425.618,487.54h-0.002c0,5.216-4.244,9.46-9.46,9.46H95.846
			c-5.217,0-9.461-4.244-9.461-9.46V34.979c0-5.217,4.244-9.461,9.461-9.461h92.551v27.424c0,12.221,9.942,22.162,22.163,22.162
			h53.274c4.143,0,7.5-3.357,7.5-7.5s-3.357-7.5-7.5-7.5h-53.274c-3.949,0-7.163-3.213-7.163-7.162V22.163
			c0-3.95,3.213-7.163,7.163-7.163h90.883c3.95,0,7.163,3.213,7.163,7.163v30.779c0,3.949-3.213,7.162-7.163,7.162h-6.848
			c-4.143,0-7.5,3.357-7.5,7.5s3.357,7.5,7.5,7.5h6.848c11.18,0,20.447-8.321,21.946-19.095h59.333
			c6.84,0,12.404,5.564,12.404,12.404v295.212h-73.112c-16.416,0-29.771,13.355-29.771,29.771v47.499c0,4.143,3.357,7.5,7.5,7.5
			s7.5-3.357,7.5-7.5v-47.499c0-8.145,6.626-14.771,14.771-14.771h72.225c-1.357,5.661-4.245,10.857-8.466,15.076l-63.454,63.455
			c-6.03,6.03-14.048,9.352-22.577,9.352H129.281c-6.84,0-12.404-5.564-12.404-12.403V68.414c0-6.84,5.564-12.404,12.404-12.404
			h34.026c4.142,0,7.5-3.357,7.5-7.5s-3.358-7.5-7.5-7.5h-34.026c-15.111,0-27.404,12.294-27.404,27.404v385.691
			c0,15.11,12.293,27.403,27.404,27.403h170.462c12.536,0,24.321-4.881,33.185-13.744l63.453-63.455
			c8.864-8.863,13.746-20.647,13.746-33.184V68.414c0-15.11-12.294-27.404-27.404-27.404h-59.116V25.519h92.551
			c5.216,0,9.46,4.244,9.46,9.461V487.54z"/>
	</g>
</g>
<g>
</g>
<g>
</g>
<g>
</g>
<g>
</g>
<g>
</g>
<g>
</g>
<g>
</g>
<g>
</g>
<g>
</g>
<g>
</g>
<g>
</g>
<g>
</g>
<g>
</g>
<g>
</g>
<g>
</g>
</svg>
