<?xml version="1.0" encoding="UTF-8"?>
<svg enable-background="new 0 0 512 512" version="1.1" viewBox="0 0 512 512" xml:space="preserve" 
    xmlns="http://www.w3.org/2000/svg">
    <path d="m362.94 0h-294c-16.542 0-30 13.458-30 30v102c0 5.523 4.478 10 10 10s10-4.477 10-10v-102c0-5.514 4.486-10 10-10h294c5.514 0 10 4.486 10 10v372c0 5.514-4.486 10-10 10h-294c-5.514 0-10-4.486-10-10v-185.67c0-5.523-4.478-10-10-10s-10 4.477-10 10v185.67c0 16.542 13.458 30 30 30h294c16.542 0 30-13.458 30-30v-372c0-16.542-13.458-30-30-30z"/>
    <path d="m56.006 169.7c-1.859-1.86-4.439-2.92-7.069-2.92s-5.21 1.06-7.07 2.92c-1.861 1.87-2.93 4.45-2.93 7.07 0 2.64 1.07 5.21 2.93 7.08 1.86 1.86 4.44 2.93 7.07 2.93 2.629 0 5.209-1.07 7.069-2.93 1.861-1.86 2.931-4.44 2.931-7.08 0-2.63-1.071-5.2-2.931-7.07z"/>
    <path d="m96.066 454.99c-1.86-1.86-4.429-2.93-7.07-2.93-2.63 0-5.21 1.07-7.069 2.93-1.861 1.86-2.931 4.44-2.931 7.07 0 2.64 1.071 5.21 2.931 7.07 1.859 1.87 4.439 2.93 7.069 2.93 2.641 0 5.21-1.06 7.07-2.93 1.861-1.86 2.93-4.43 2.93-7.07 0-2.63-1.07-5.21-2.93-7.07z"/>
    <path d="m423 40.063c-5.522 0-10 4.477-10 10v392c0 5.514-4.486 10-10 10h-274c-5.522 0-10 4.477-10 10s4.478 10 10 10h274c16.542 0 30-13.458 30-30v-392c0-5.523-4.478-10-10-10z"/>
    <path d="m463.06 80c-5.522 0-10 4.477-10 10v392c0 5.514-4.486 10-10 10h-314c-5.522 0-10 4.477-10 10s4.478 10 10 10h314c16.542 0 30-13.458 30-30v-392c0-5.523-4.478-10-10-10z"/>
    <path d="m200.94 74h-96c-5.522 0-10 4.477-10 10v96c0 5.523 4.478 10 10 10h96c5.522 0 10-4.477 10-10v-96c0-5.523-4.478-10-10-10zm-10 96h-76v-76h76v76z"/>
    <path d="m168.76 235.4c-3.906-3.904-10.236-3.905-14.143 0l-26.583 26.583-12.36-12.361c-3.905-3.905-10.235-3.904-14.143 0-3.905 3.905-3.905 10.237 0 14.142l19.432 19.432c1.876 1.875 4.419 2.929 7.071 2.929 2.653 0 5.195-1.054 7.072-2.929l33.654-33.654c3.905-3.905 3.905-10.237 0-14.142z"/>
    <path d="m332.6 249h-116.67c-5.522 0-10 4.477-10 10s4.478 10 10 10h116.67c5.522 0 10-4.477 10-10s-4.478-10-10-10z"/>
    <path d="m326.94 74h-70c-5.522 0-10 4.477-10 10s4.478 10 10 10h70c5.522 0 10-4.477 10-10s-4.478-10-10-10z"/>
    <path d="m326.94 122h-70c-5.522 0-10 4.477-10 10s4.478 10 10 10h70c5.522 0 10-4.477 10-10s-4.478-10-10-10z"/>
    <path d="m326.94 170h-70c-5.522 0-10 4.477-10 10s4.478 10 10 10h70c5.522 0 10-4.477 10-10s-4.478-10-10-10z"/>
    <path d="m168.76 311.77c-3.906-3.904-10.236-3.905-14.143 0l-26.583 26.583-12.36-12.361c-3.905-3.905-10.235-3.904-14.143 0-3.905 3.905-3.905 10.237 0 14.142l19.432 19.432c1.876 1.875 4.419 2.929 7.071 2.929 2.653 0 5.195-1.054 7.072-2.929l33.654-33.654c3.905-3.905 3.905-10.237 0-14.142z"/>
    <path d="m332.6 325h-116.67c-5.522 0-10 4.477-10 10s4.478 10 10 10h116.67c5.522 0 10-4.477 10-10s-4.478-10-10-10z"/>
</svg>
