<svg xmlns="http://www.w3.org/2000/svg" viewBox="0 0 512 512"><path d="M504 4.3H8C3.6 4.3 0 7.9 0 12.3v102.6 384.8c0 4.4 3.6 8 8 8h496c4.4 0 8-3.6 8-8V114.9 12.3C512 7.9 508.4 4.3 504 4.3zM496 491.7H16V122.9h479.9V491.7zM496 106.9H16v-86.6h479.9V106.9z"/><path d="M427 38.5H333c-4.4 0-8 3.6-8 8 0 4.4 3.6 8 8 8h94.1c4.4 0 8-3.6 8-8C435 42.1 431.5 38.5 427 38.5z"/><path d="M469.8 38.5h-17.1c-4.4 0-8 3.6-8 8 0 4.4 3.6 8 8 8h17.1c4.4 0 8-3.6 8-8C477.8 42.1 474.2 38.5 469.8 38.5z"/><path d="M264.6 29.9c-18.6 0-33.7 15.1-33.7 33.7s15.1 33.7 33.7 33.7 33.7-15.1 33.7-33.7S283.1 29.9 264.6 29.9zM264.6 81.2c-9.7 0-17.6-7.9-17.6-17.6s7.9-17.6 17.6-17.6 17.6 7.9 17.6 17.6S274.3 81.2 264.6 81.2z"/><path d="M170.5 29.9c-18.6 0-33.7 15.1-33.7 33.7s15.1 33.7 33.7 33.7 33.7-15.1 33.7-33.7S189.1 29.9 170.5 29.9zM170.5 81.2c-9.7 0-17.6-7.9-17.6-17.6s7.9-17.6 17.6-17.6 17.6 7.9 17.6 17.6S180.2 81.2 170.5 81.2z"/><path d="M76.4 29.9c-18.6 0-33.7 15.1-33.7 33.7s15.1 33.7 33.7 33.7 33.7-15.1 33.7-33.7S95 29.9 76.4 29.9zM76.4 81.2c-9.7 0-17.6-7.9-17.6-17.6s7.9-17.6 17.6-17.6 17.6 7.9 17.6 17.6S86.2 81.2 76.4 81.2z"/><path d="M168.9 232.1c0.2-6.4-2.2-12.5-6.6-17.2s-10.4-7.3-16.8-7.5c-6.4-0.2-12.5 2.2-17.2 6.6l-81.2 77c-4.9 4.6-7.6 11.1-7.5 17.8 0.1 6.7 3 13.1 8 17.6l81.2 72.7c4.4 4 10.1 6.1 16 6.1 0 0 0 0 0 0 6.8 0 13.4-2.9 17.9-8 8.8-9.9 8-25.1-1.9-34l-61.8-55.3 62.3-59C166 244.5 168.7 238.5 168.9 232.1zM150.3 237.2l-68.6 65c-1.6 1.5-2.5 3.7-2.5 5.9 0 2.2 1 4.4 2.7 5.9l68.3 61.1c3.3 2.9 3.6 8 0.6 11.3 -1.5 1.7-3.7 2.7-6 2.7 -2 0-3.9-0.7-5.3-2l-81.2-72.7c-1.7-1.5-2.6-3.6-2.7-5.9 0-2.2 0.9-4.4 2.5-5.9l81.2-77c1.5-1.4 3.4-2.2 5.5-2.2 0.1 0 0.1 0 0.2 0 2.1 0.1 4.1 0.9 5.6 2.5 1.5 1.6 2.3 3.6 2.2 5.7C152.8 233.8 151.9 235.8 150.3 237.2z"/><path d="M464.9 290.9l-81.2-77c-9.6-9.1-24.9-8.7-34 0.9 -9.1 9.6-8.7 24.9 0.9 34l62.3 59 -61.8 55.3c-9.9 8.8-10.7 24.1-1.9 34 4.6 5.1 11.1 8 17.9 8 0 0 0 0 0 0 5.9 0 11.6-2.2 16-6.1l81.2-72.7c5-4.5 7.9-10.9 8-17.6C472.5 302 469.8 295.5 464.9 290.9zM453.7 314.3l-81.2 72.7c-1.5 1.3-3.4 2-5.3 2h0c-2.3 0-4.4-0.9-6-2.7 -2.9-3.3-2.7-8.4 0.6-11.3l68.3-61.1c1.7-1.5 2.6-3.6 2.7-5.9 0-2.2-0.9-4.4-2.5-5.9l-68.6-65c-3.2-3-3.3-8.1-0.3-11.3 1.6-1.7 3.7-2.5 5.8-2.5 2 0 4 0.7 5.5 2.2l81.2 77c1.6 1.5 2.5 3.7 2.5 5.9v0h0C456.4 310.7 455.4 312.9 453.7 314.3z"/><path d="M317.7 233.7c-1.7-6.2-5.7-11.4-11.2-14.6 0 0 0 0 0 0 -11.5-6.6-26.2-2.6-32.8 8.8l-81.2 141.1c-6.6 11.5-2.6 26.2 8.8 32.8 3.6 2.1 7.8 3.2 12 3.2 8.6 0 16.6-4.6 20.9-12.1l81.2-141.1C318.5 246.4 319.4 239.9 317.7 233.7zM301.4 244l-81.2 141.1c-1.4 2.5-4.1 4-7 4 -1.4 0-2.7-0.4-4-1.1 -3.8-2.2-5.2-7.1-2.9-10.9l81.2-141.1c1.5-2.6 4.2-4 7-4 1.4 0 2.7 0.3 4 1.1 1.9 1.1 3.2 2.8 3.7 4.9C302.8 239.9 302.5 242.1 301.4 244z"/></svg>