<?xml version="1.0" encoding="iso-8859-1"?>
<!-- Generator: Adobe Illustrator 19.0.0, SVG Export Plug-In . SVG Version: 6.00 Build 0)  -->
<svg version="1.1" id="Capa_1" xmlns="http://www.w3.org/2000/svg" xmlns:xlink="http://www.w3.org/1999/xlink" x="0px" y="0px"
	 viewBox="0 0 512 512" style="enable-background:new 0 0 512 512;" xml:space="preserve">
<g>
	<g>
		<path d="M504.5,385.543c-4.143,0-7.5,3.357-7.5,7.5c0,18.98-15.442,34.422-34.422,34.422c-18.98,0-34.422-15.441-34.422-34.422
			s15.441-34.422,34.422-34.422c4.143,0,7.5-3.357,7.5-7.5s-3.357-7.5-7.5-7.5c-27.252,0-49.423,22.171-49.423,49.423
			c0,27.252,22.171,49.423,49.423,49.423c27.252,0,49.423-22.171,49.423-49.423C512,388.901,508.642,385.543,504.5,385.543z"/>
	</g>
</g>
<g>
	<g>
		<path d="M504.016,358.044c-3.046-2.804-7.791-2.61-10.599,0.435l-31.545,34.244l-10.404-12.03
			c-2.709-3.132-7.445-3.477-10.58-0.767c-3.133,2.71-3.476,7.446-0.767,10.58l15.9,18.385c2.93,3.388,8.158,3.464,11.191,0.176
			l37.238-40.423C507.257,365.596,507.062,360.851,504.016,358.044z"/>
	</g>
</g>
<g>
	<g>
		<path d="M288.641,387.298h-0.5c-4.142,0-7.5,3.357-7.5,7.5c0,4.142,3.358,7.5,7.5,7.5h0.5c4.143,0,7.5-3.358,7.5-7.5
			C296.142,390.656,292.785,387.298,288.641,387.298z"/>
	</g>
</g>
<g>
	<g>
		<path d="M324.144,387.298h-0.5c-4.142,0-7.5,3.357-7.5,7.5c0,4.142,3.358,7.5,7.5,7.5h0.5c4.143,0,7.5-3.358,7.5-7.5
			C331.644,390.656,328.287,387.298,324.144,387.298z"/>
	</g>
</g>
<g>
	<g>
		<path d="M182.135,387.298h-0.5c-4.142,0-7.5,3.357-7.5,7.5c0,4.142,3.358,7.5,7.5,7.5h0.5c4.143,0,7.5-3.358,7.5-7.5
			C189.635,390.656,186.278,387.298,182.135,387.298z"/>
	</g>
</g>
<g>
	<g>
		<path d="M146.633,387.298h-0.5c-4.142,0-7.5,3.357-7.5,7.5c0,4.142,3.358,7.5,7.5,7.5h0.5c4.143,0,7.5-3.358,7.5-7.5
			C154.133,390.656,150.776,387.298,146.633,387.298z"/>
	</g>
</g>
<g>
	<g>
		<path d="M111.131,387.298h-0.5c-4.143,0-7.5,3.357-7.5,7.5c0,4.142,3.357,7.5,7.5,7.5h0.5c4.143,0,7.5-3.358,7.5-7.5
			C118.631,390.657,115.274,387.298,111.131,387.298z"/>
	</g>
</g>
<g>
	<g>
		<path d="M253.139,387.298h-0.5c-4.142,0-7.5,3.357-7.5,7.5c0,4.142,3.358,7.5,7.5,7.5h0.5c4.143,0,7.5-3.358,7.5-7.5
			C260.64,390.656,257.283,387.298,253.139,387.298z"/>
	</g>
</g>
<g>
	<g>
		<path d="M217.637,387.298h-0.5c-4.142,0-7.5,3.357-7.5,7.5c0,9.998,15.501,10.014,15.501,0
			C225.138,390.656,221.78,387.298,217.637,387.298z"/>
	</g>
</g>
<g>
	<g>
		<path d="M504.5,248.499c-4.143,0-7.5,3.357-7.5,7.5c0,18.98-15.442,34.422-34.422,34.422c-18.98,0-34.422-15.442-34.422-34.422
			c0-18.98,15.441-34.422,34.422-34.422c4.143,0,7.5-3.357,7.5-7.5s-3.357-7.5-7.5-7.5c-27.252,0-49.423,22.171-49.423,49.423
			s22.171,49.423,49.423,49.423C489.829,305.422,512,283.251,512,256C512,251.857,508.642,248.499,504.5,248.499z"/>
	</g>
</g>
<g>
	<g>
		<path d="M504.017,220.999c-3.046-2.804-7.792-2.61-10.599,0.436l-31.545,34.244l-10.404-12.03
			c-2.709-3.132-7.445-3.477-10.58-0.767c-3.133,2.71-3.476,7.446-0.767,10.58l15.9,18.385c1.423,1.646,3.493,2.594,5.673,2.594
			c2.094,0,4.095-0.876,5.517-2.419l37.238-40.424C507.258,228.552,507.063,223.807,504.017,220.999z"/>
	</g>
</g>
<g>
	<g>
		<path d="M146.633,250.255h-0.5v0c-4.142,0-7.5,3.357-7.5,7.5s3.358,7.5,7.5,7.5h0.5c4.143,0,7.5-3.357,7.5-7.5
			S150.776,250.255,146.633,250.255z"/>
	</g>
</g>
<g>
	<g>
		<path d="M111.131,250.255h-0.5v0c-4.143,0-7.5,3.357-7.5,7.5s3.357,7.5,7.5,7.5h0.5c4.143,0,7.5-3.357,7.5-7.5
			S115.274,250.255,111.131,250.255z"/>
	</g>
</g>
<g>
	<g>
		<path d="M182.135,250.255h-0.5v0c-4.142,0-7.5,3.357-7.5,7.5s3.358,7.5,7.5,7.5h0.5c4.143,0,7.5-3.357,7.5-7.5
			S186.278,250.255,182.135,250.255z"/>
	</g>
</g>
<g>
	<g>
		<path d="M288.641,250.255h-0.5v0c-4.142,0-7.5,3.357-7.5,7.5s3.358,7.5,7.5,7.5h0.5c4.143,0,7.5-3.357,7.5-7.5
			S292.785,250.255,288.641,250.255z"/>
	</g>
</g>
<g>
	<g>
		<path d="M217.637,250.255h-0.5v0c-4.142,0-7.5,3.357-7.5,7.5s3.358,7.5,7.5,7.5h0.5c4.143,0,7.5-3.357,7.5-7.5
			S221.78,250.255,217.637,250.255z"/>
	</g>
</g>
<g>
	<g>
		<path d="M324.144,250.255h-0.5c-4.142,0-7.5,3.357-7.5,7.5s3.358,7.5,7.5,7.5h0.5c4.143,0,7.5-3.357,7.5-7.5
			S328.287,250.255,324.144,250.255z"/>
	</g>
</g>
<g>
	<g>
		<path d="M253.139,250.255h-0.5v0c-4.142,0-7.5,3.357-7.5,7.5s3.358,7.5,7.5,7.5h0.5c4.143,0,7.5-3.357,7.5-7.5
			S257.283,250.255,253.139,250.255z"/>
	</g>
</g>
<g>
	<g>
		<path d="M504.5,111.456c-4.143,0-7.5,3.357-7.5,7.5c0,18.981-15.442,34.422-34.422,34.422c-18.98,0-34.422-15.441-34.422-34.422
			c0-18.981,15.441-34.422,34.422-34.422c4.143,0,7.5-3.357,7.5-7.5s-3.357-7.5-7.5-7.5c-27.252,0-49.423,22.171-49.423,49.423
			c0,27.252,22.171,49.423,49.423,49.423S512,146.208,512,118.956C512,114.813,508.642,111.456,504.5,111.456z"/>
	</g>
</g>
<g>
	<g>
		<path d="M504.016,83.956c-3.046-2.805-7.791-2.61-10.599,0.435l-31.545,34.244l-10.404-12.03
			c-2.709-3.133-7.445-3.476-10.58-0.767c-3.133,2.71-3.476,7.446-0.767,10.58l15.9,18.385c2.909,3.364,8.133,3.49,11.191,0.176
			l37.238-40.423C507.257,91.509,507.062,86.763,504.016,83.956z"/>
	</g>
</g>
<g>
	<g>
		<path d="M182.135,113.212h-0.5c-4.142,0-7.5,3.357-7.5,7.5c0,4.143,3.358,7.5,7.5,7.5h0.5c4.143,0,7.5-3.358,7.5-7.5
			C189.635,116.569,186.278,113.212,182.135,113.212z"/>
	</g>
</g>
<g>
	<g>
		<path d="M111.131,113.212h-0.5c-4.143,0-7.5,3.357-7.5,7.5c0,4.143,3.357,7.5,7.5,7.5h0.5c4.143,0,7.5-3.358,7.5-7.5
			C118.631,116.569,115.274,113.212,111.131,113.212z"/>
	</g>
</g>
<g>
	<g>
		<path d="M217.637,113.212h-0.5c-4.142,0-7.5,3.357-7.5,7.5c0,4.143,3.358,7.5,7.5,7.5h0.5c4.143,0,7.5-3.358,7.5-7.5
			C225.138,116.569,221.78,113.212,217.637,113.212z"/>
	</g>
</g>
<g>
	<g>
		<path d="M146.633,113.212h-0.5c-4.142,0-7.5,3.357-7.5,7.5c0,4.143,3.358,7.5,7.5,7.5h0.5c4.143,0,7.5-3.358,7.5-7.5
			C154.133,116.569,150.776,113.212,146.633,113.212z"/>
	</g>
</g>
<g>
	<g>
		<path d="M288.641,113.212h-0.5c-4.142,0-7.5,3.357-7.5,7.5c0,4.143,3.358,7.5,7.5,7.5h0.5c4.143,0,7.5-3.358,7.5-7.5
			C296.142,116.569,292.785,113.212,288.641,113.212z"/>
	</g>
</g>
<g>
	<g>
		<path d="M324.144,113.212h-0.5c-4.142,0-7.5,3.357-7.5,7.5c0,4.143,3.358,7.5,7.5,7.5h0.5c4.143,0,7.5-3.358,7.5-7.5
			C331.644,116.569,328.287,113.212,324.144,113.212z"/>
	</g>
</g>
<g>
	<g>
		<path d="M253.139,113.212h-0.5c-4.142,0-7.5,3.357-7.5,7.5c0,4.143,3.358,7.5,7.5,7.5h0.5c4.143,0,7.5-3.358,7.5-7.5
			C260.64,116.569,257.283,113.212,253.139,113.212z"/>
	</g>
</g>
<g>
	<g>
		<path d="M353.116,77.007H128.132c-4.142,0-7.5,3.357-7.5,7.5s3.357,7.5,7.5,7.5h224.985c9.06,0,16.43,7.369,16.43,16.429v24.551
			c0,9.06-7.37,16.429-16.43,16.429H77.557V92.008H93.13c4.143,0,7.5-3.357,7.5-7.5s-3.357-7.5-7.5-7.5c-6.826,0-55.587,0-61.7,0
			C14.1,77.007,0,91.107,0,108.437v24.551c0,17.33,14.1,31.43,31.43,31.43h38.626h283.06c17.331,0,31.431-14.1,31.431-31.43v-24.551
			C384.546,91.107,370.447,77.007,353.116,77.007z M62.556,149.416H31.43c-9.06,0-16.429-7.369-16.429-16.429v-24.552
			c0-9.06,7.369-16.429,16.429-16.429h31.126V149.416z"/>
	</g>
</g>
<g>
	<g>
		<path d="M353.116,214.05H70.056c-34.889,0.809-41.618-2.022-52.24,3.104C7.284,222.236,0,233.024,0,245.48
			c0,15.201,0,9.353,0,24.551c0,17.33,14.1,31.43,31.43,31.43c11.092,0,257.287,0,275.713,0c4.143,0,7.5-3.357,7.5-7.5
			s-3.357-7.5-7.5-7.5H77.557v-57.408h275.56c9.06,0,16.43,7.369,16.43,16.429v24.552c0,9.06-7.37,16.429-16.43,16.429h-10.972
			c-4.142,0-7.5,3.357-7.5,7.5s3.358,7.5,7.5,7.5h10.972c17.331,0,31.431-14.1,31.431-31.43v-24.552
			C384.546,228.15,370.447,214.05,353.116,214.05z M62.556,286.459H31.43c-9.06,0-16.429-7.369-16.429-16.429v-24.55
			c0-9.075,7.384-16.43,16.429-16.43h31.126V286.459z"/>
	</g>
</g>
<g>
	<g>
		<path d="M353.116,351.093H31.43c-17.33,0-31.43,14.1-31.43,31.431v24.55c0,17.331,14.1,31.431,31.43,31.431
			c6.111,0,54.873,0,61.7,0c4.143,0,7.5-3.357,7.5-7.5s-3.357-7.5-7.5-7.5H77.557v-57.409h275.56c9.06,0,16.43,7.37,16.43,16.43
			v24.55c0,9.06-7.37,16.43-16.43,16.43H128.132c-4.142,0-7.5,3.357-7.5,7.5s3.357,7.5,7.5,7.5h224.985
			c17.331,0,31.431-14.1,31.431-31.431v-24.55C384.546,365.193,370.447,351.093,353.116,351.093z M31.43,423.505
			c-9.06,0-16.429-7.37-16.429-16.43c0.108-25.2-0.251-25.005,0.334-27.857c1.534-7.479,8.168-13.122,16.094-13.122h31.126v57.409
			H31.43z"/>
	</g>
</g>
<g>
</g>
<g>
</g>
<g>
</g>
<g>
</g>
<g>
</g>
<g>
</g>
<g>
</g>
<g>
</g>
<g>
</g>
<g>
</g>
<g>
</g>
<g>
</g>
<g>
</g>
<g>
</g>
<g>
</g>
</svg>
