<svg xmlns="http://www.w3.org/2000/svg" viewBox="0 0 512 512"><path d="M504.1 339.5c4.2 0 7.6-3.4 7.6-7.6V299.8c0-2-0.8-3.9-2.2-5.4l-99-99c-2.6-2.6-6.7-3-9.9-0.8 -2 1.5-3.1 3.9-3.1 6.4v80.5l-86.1-86.1c-2.6-2.6-6.7-3-9.9-0.8 -2 1.5-3.1 3.9-3.1 6.4v80.5l-20-20 -1-23.4L275.6 90.1c-0.1-4.2-3.4-7.5-7.6-7.5h-88c-4.2 0-7.5 3.4-7.6 7.5l-2.2 202.1h-30.2l-2.9-227.4c-0.1-4.2-3.4-7.5-7.6-7.5H41.6c-4.2 0-7.5 3.3-7.6 7.5l-2.9 227.4H7.9c-4.2 0-7.6 3.4-7.6 7.6v204.6c0 4.2 3.4 7.6 7.6 7.6h34.5 133.2 328.5c4.2 0 7.6-3.4 7.6-7.6V367.4c0-4.2-3.4-7.6-7.6-7.6s-7.6 3.4-7.6 7.6v129.5H183.2V344.1c0-4.2-3.4-7.6-7.6-7.6H42.4c-4.2 0-7.6 3.4-7.6 7.6v152.7H15.5V307.4h191.6c4.2 0 7.6-3.4 7.6-7.6v-80.7l86.1 86.1c2.6 2.6 6.7 3 9.8 0.8 2-1.5 3.1-3.9 3.1-6.4v-80.5l86.1 86.1c2.6 2.6 6.7 3 9.8 0.8 2-1.5 3.1-3.9 3.1-6.4V219.1l83.8 83.8V331.9C496.5 336.1 499.9 339.5 504.1 339.5zM118.4 351.7h49.7v145.1h-49.7V351.7zM50 351.7h53.2v145.1H50V351.7zM49.1 72.5h73l0.6 43.9H48.6L49.1 72.5zM48.4 131.6h74.5l0.7 53.5H47.7L48.4 131.6zM47.5 200.3h76.2l0.7 53.5h-77.5L47.5 200.3zM46.3 292.2l0.3-23.2h77.9l0.3 23.2H46.3zM187.5 97.8c0 0 73 0 73 0l0.6 44h-74L187.5 97.8zM199.5 292.2h-14.1l0.7-66.6h13.3V292.2zM212.4 195.4c-2.2-2.2-5.4-2.8-8.3-1.6 -2.8 1.2-4.7 3.9-4.7 7v9.7h-13.2l0.6-53.5h74.4l0.7 53.5h-34.5L212.4 195.4zM242.6 225.7h19.5l0.2 12.7c0 0.1 0 0.2 0 0.2l0.3 7L242.6 225.7z"/><path d="M460.9 336.5h-59.2c-4.2 0-7.6 3.4-7.6 7.6v120c0 4.2 3.4 7.6 7.6 7.6h59.2c4.2 0 7.6-3.4 7.6-7.6v-120C468.5 339.9 465.1 336.5 460.9 336.5zM423.7 456.5h-14.4v-44.8h14.4V456.5zM423.7 396.5h-14.4v-44.8h14.4V396.5zM453.3 456.5h-14.4v-44.8h14.4V456.5zM453.3 396.5h-14.4v-44.8h14.4V396.5z"/><path d="M279.4 336.5h-59.2c-4.2 0-7.6 3.4-7.6 7.6v120c0 4.2 3.4 7.6 7.6 7.6h59.2c4.2 0 7.6-3.4 7.6-7.6v-120C287 339.9 283.6 336.5 279.4 336.5zM227.7 351.7h14.4v44.8h-14.4V351.7zM242.2 456.5h-14.4v-44.8h14.4V456.5zM271.8 456.5h-14.4v-44.8h14.4V456.5zM271.8 396.5h-14.4v-44.8h14.4V396.5z"/><path d="M370.2 336.5h-59.2c-4.2 0-7.6 3.4-7.6 7.6v120c0 4.2 3.4 7.6 7.6 7.6h59.2c4.2 0 7.6-3.4 7.6-7.6v-120C377.8 339.9 374.4 336.5 370.2 336.5zM332.9 456.5h-14.4v-44.8h14.4V456.5zM332.9 396.5h-14.4v-44.8h14.4V396.5zM362.6 456.5h-14.4v-44.8h14.4V456.5zM362.6 396.5h-14.4v-44.8h14.4V396.5z"/><path d="M461.2 26.4H349.2c0-0.4 0-0.8 0-1.2C349.3 11.3 338 0 324.2 0H76.6C62.8 0 51.5 11.2 51.5 25.1v17.5c0 4.2 3.4 7.6 7.6 7.6h129.5c0 0.4 0 0.8 0 1.2v17.5c0 4.2 3.4 7.6 7.6 7.6h187.5c4.2 0 7.6-3.4 7.6-7.6s-3.4-7.6-7.6-7.6H203.8v-9.9c0-5.5 4.4-9.9 9.9-9.9h247.2c5.3 0 9.9 4 10.3 9.2 0.4 5.8-4.2 10.6-9.9 10.6h-42.1c-4.2 0-7.6 3.4-7.6 7.6s3.4 7.6 7.6 7.6h41.5c14.1 0 25.9-11.5 25.7-25.5C486.1 37.4 474.9 26.4 461.2 26.4zM334 26.4H213.7c-7.6 0-14.4 3.4-19 8.7H66.7v-9.9c0-5.5 4.5-9.9 9.9-9.9h247.5c5.5 0 9.9 4.5 9.9 9.9C334.1 25.5 334.1 26 334 26.4z"/></svg>