<?xml version="1.0" encoding="iso-8859-1"?>
<!-- Generator: Adobe Illustrator 19.0.0, SVG Export Plug-In . SVG Version: 6.00 Build 0)  -->
<svg version="1.1" id="Capa_1" xmlns="http://www.w3.org/2000/svg" xmlns:xlink="http://www.w3.org/1999/xlink" x="0px" y="0px"
	 viewBox="0 0 512 512" style="enable-background:new 0 0 512 512;" xml:space="preserve">
<g>
	<g>
		<path d="M504.155,307.765h-79.076V7.604c0-4.199-3.404-7.604-7.604-7.604H266.927c-4.2,0-7.604,3.405-7.604,7.604v91.822H75.318
			c-4.2,0-7.604,3.405-7.604,7.604v117.002H7.846c-4.2,0-7.604,3.405-7.604,7.604v272.759c0,4.199,3.404,7.604,7.604,7.604h40.077
			c0.007,0,0.013,0.001,0.019,0.001h121.656c0.007,0,0.013-0.001,0.019-0.001h35.95c0.007,0,0.013,0.001,0.019,0.001h128.754
			c0.007,0,0.013-0.001,0.019-0.001h35c0.007,0,0.013,0.001,0.019,0.001h25.312h84.15h25.312c4.2,0,7.604-3.405,7.604-7.604V315.369
			C511.759,311.17,508.356,307.765,504.155,307.765z M274.531,15.208h135.34v44.681h-135.34V15.208z M274.531,130.277h83.603
			c4.199,0,7.604-3.405,7.604-7.604s-3.405-7.604-7.604-7.604h-83.603v-8.038V75.097h135.34v39.972H393.62
			c-4.199,0-7.604,3.405-7.604,7.604s3.405,7.604,7.604,7.604h16.251v39.972h-135.34V130.277z M161.994,496.791H99.641H75.318
			H55.546v-40.28c0-4.199-3.405-7.604-7.604-7.604s-7.604,3.405-7.604,7.604v40.28H15.45V239.24h52.264v62.441H47.942
			c-4.199,0-7.604,3.405-7.604,7.604v111.74c0,4.199,3.405,7.604,7.604,7.604s7.604-3.405,7.604-7.604V316.89h50.186h56.262V496.791
			z M197.984,496.791h-20.782v-26.594h20.782V496.791z M197.984,454.989h-20.782V431.87h20.782V454.989z M197.984,416.662h-20.782
			v-23.119h20.782V416.662z M197.984,378.335h-20.782v-23.119h20.782V378.335z M197.984,340.009h-20.782V316.89h20.782V340.009z
			 M105.732,225.027c-4.2,0-7.604,3.405-7.604,7.604s3.404,7.604,7.604,7.604h92.252v23.119h-24.878c-4.2,0-7.604,3.405-7.604,7.604
			c0,4.199,3.404,7.604,7.604,7.604h24.878v23.119h-28.386h-63.866h-22.81V114.634h176.401v110.393h-22.81h-30.926H105.732z
			 M326.738,496.791h-59.811h-53.736V240.236h23.322h30.414v0.401h59.811V496.791z M274.531,225.027v-39.571h135.34v39.571H274.531z
			 M409.871,240.636v39.969h-67.926v-39.969H409.871z M361.778,496.791h-19.832v-35.434h19.832V496.791z M361.778,446.149h-19.832
			v-39.976h19.832V446.149z M361.778,390.964h-19.832v-39.966h19.832V390.964z M361.778,315.369v20.421h-19.832v-39.976h67.926
			v11.951h-40.49C365.181,307.765,361.778,311.17,361.778,315.369z M471.239,496.792h-53.764l-15.178-0.001v-11.782h68.942V496.792z
			 M471.239,469.801h-68.942v-11.783h68.942V469.801z M471.239,442.81h-68.942v-11.783h68.942V442.81z M471.239,415.82h-68.942
			v-11.783h68.942V415.82z M471.239,388.829h-68.942v-11.783h68.942V388.829z M471.239,361.838h-68.942v-11.783h68.942V361.838z
			 M496.551,496.792h-10.104v-19.387v-26.991v-26.991v-26.991v-26.991v-26.99c0-4.199-3.404-7.604-7.604-7.604h-84.15
			c-4.2,0-7.604,3.405-7.604,7.604v26.991v26.991v26.991v26.991v26.991v19.385h-10.104V322.973h119.566V496.792z"/>
	</g>
</g>
<g>
	<g>
		<path d="M142.689,263.354h-36.957c-4.2,0-7.604,3.405-7.604,7.604c0,4.199,3.404,7.604,7.604,7.604h36.957
			c4.2,0,7.604-3.405,7.604-7.604C150.293,266.759,146.889,263.354,142.689,263.354z"/>
	</g>
</g>
<g>
	<g>
		<path d="M236.514,148.374H105.732c-4.2,0-7.604,3.405-7.604,7.604s3.404,7.604,7.604,7.604h130.782c4.2,0,7.604-3.405,7.604-7.604
			S240.714,148.374,236.514,148.374z"/>
	</g>
</g>
<g>
	<g>
		<path d="M236.514,186.701H105.732c-4.2,0-7.604,3.405-7.604,7.604s3.404,7.604,7.604,7.604h130.782c4.2,0,7.604-3.405,7.604-7.604
			S240.714,186.701,236.514,186.701z"/>
	</g>
</g>
<g>
	<g>
		<path d="M77.925,335.363c-4.2,0-7.604,3.405-7.604,7.604v17.236c0,4.199,3.404,7.604,7.604,7.604c4.2,0,7.604-3.405,7.604-7.604
			v-17.236C85.529,338.768,82.125,335.363,77.925,335.363z"/>
	</g>
</g>
<g>
	<g>
		<path d="M139.615,335.363c-4.2,0-7.604,3.405-7.604,7.604v17.236c0,4.199,3.404,7.604,7.604,7.604c4.2,0,7.604-3.405,7.604-7.604
			v-17.236C147.219,338.768,143.815,335.363,139.615,335.363z"/>
	</g>
</g>
<g>
	<g>
		<path d="M108.77,335.363c-4.2,0-7.604,3.405-7.604,7.604v17.236c0,4.199,3.404,7.604,7.604,7.604c4.2,0,7.604-3.405,7.604-7.604
			v-17.236C116.374,338.768,112.971,335.363,108.77,335.363z"/>
	</g>
</g>
<g>
	<g>
		<path d="M77.925,445.874c-4.2,0-7.604,3.405-7.604,7.604v17.236c0,4.199,3.404,7.604,7.604,7.604c4.2,0,7.604-3.405,7.604-7.604
			v-17.236C85.529,449.279,82.125,445.874,77.925,445.874z"/>
	</g>
</g>
<g>
	<g>
		<path d="M139.615,445.874c-4.2,0-7.604,3.405-7.604,7.604v17.236c0,4.199,3.404,7.604,7.604,7.604c4.2,0,7.604-3.405,7.604-7.604
			v-17.236C147.219,449.279,143.815,445.874,139.615,445.874z"/>
	</g>
</g>
<g>
	<g>
		<path d="M108.77,445.874c-4.2,0-7.604,3.405-7.604,7.604v17.236c0,4.199,3.404,7.604,7.604,7.604c4.2,0,7.604-3.405,7.604-7.604
			v-17.236C116.374,449.279,112.971,445.874,108.77,445.874z"/>
	</g>
</g>
<g>
	<g>
		<path d="M77.925,390.619c-4.2,0-7.604,3.405-7.604,7.604v17.236c0,4.199,3.404,7.604,7.604,7.604c4.2,0,7.604-3.405,7.604-7.604
			v-17.236C85.529,394.023,82.125,390.619,77.925,390.619z"/>
	</g>
</g>
<g>
	<g>
		<path d="M139.615,390.619c-4.2,0-7.604,3.405-7.604,7.604v17.236c0,4.199,3.404,7.604,7.604,7.604c4.2,0,7.604-3.405,7.604-7.604
			v-17.236C147.219,394.023,143.815,390.619,139.615,390.619z"/>
	</g>
</g>
<g>
	<g>
		<path d="M108.77,390.619c-4.2,0-7.604,3.405-7.604,7.604v17.236c0,4.199,3.404,7.604,7.604,7.604c4.2,0,7.604-3.405,7.604-7.604
			v-17.236C116.374,394.023,112.971,390.619,108.77,390.619z"/>
	</g>
</g>
<g>
	<g>
		<path d="M239.12,354.369c-4.2,0-7.604,3.405-7.604,7.604v17.236c0,4.199,3.404,7.604,7.604,7.604s7.604-3.405,7.604-7.604v-17.236
			C246.724,357.774,243.321,354.369,239.12,354.369z"/>
	</g>
</g>
<g>
	<g>
		<path d="M300.811,354.369c-4.2,0-7.604,3.405-7.604,7.604v17.236c0,4.199,3.404,7.604,7.604,7.604s7.604-3.405,7.604-7.604
			v-17.236C308.414,357.774,305.01,354.369,300.811,354.369z"/>
	</g>
</g>
<g>
	<g>
		<path d="M269.965,354.369c-4.2,0-7.604,3.405-7.604,7.604v17.236c0,4.199,3.404,7.604,7.604,7.604c4.2,0,7.604-3.405,7.604-7.604
			v-17.236C277.569,357.774,274.165,354.369,269.965,354.369z"/>
	</g>
</g>
<g>
	<g>
		<path d="M239.12,257.795c-4.2,0-7.604,3.405-7.604,7.604v17.236c0,4.199,3.404,7.604,7.604,7.604s7.604-3.405,7.604-7.604v-17.236
			C246.724,261.199,243.321,257.795,239.12,257.795z"/>
	</g>
</g>
<g>
	<g>
		<path d="M300.811,257.795c-4.2,0-7.604,3.405-7.604,7.604v17.236c0,4.199,3.404,7.604,7.604,7.604s7.604-3.405,7.604-7.604
			v-17.236C308.414,261.199,305.01,257.795,300.811,257.795z"/>
	</g>
</g>
<g>
	<g>
		<path d="M269.965,257.795c-4.2,0-7.604,3.405-7.604,7.604v17.236c0,4.199,3.404,7.604,7.604,7.604c4.2,0,7.604-3.405,7.604-7.604
			v-17.236C277.569,261.199,274.165,257.795,269.965,257.795z"/>
	</g>
</g>
<g>
	<g>
		<path d="M239.12,306.081c-4.2,0-7.604,3.405-7.604,7.604v17.236c0,4.199,3.404,7.604,7.604,7.604s7.604-3.405,7.604-7.604v-17.236
			C246.724,309.486,243.321,306.081,239.12,306.081z"/>
	</g>
</g>
<g>
	<g>
		<path d="M300.811,306.081c-4.2,0-7.604,3.405-7.604,7.604v17.236c0,4.199,3.404,7.604,7.604,7.604s7.604-3.405,7.604-7.604
			v-17.236C308.414,309.486,305.01,306.081,300.811,306.081z"/>
	</g>
</g>
<g>
	<g>
		<path d="M269.965,306.081c-4.2,0-7.604,3.405-7.604,7.604v17.236c0,4.199,3.404,7.604,7.604,7.604c4.2,0,7.604-3.405,7.604-7.604
			v-17.236C277.569,309.486,274.165,306.081,269.965,306.081z"/>
	</g>
</g>
<g>
	<g>
		<path d="M239.12,450.943c-4.2,0-7.604,3.405-7.604,7.604v17.236c0,4.199,3.404,7.604,7.604,7.604s7.604-3.405,7.604-7.604v-17.236
			C246.724,454.348,243.321,450.943,239.12,450.943z"/>
	</g>
</g>
<g>
	<g>
		<path d="M300.811,450.943c-4.2,0-7.604,3.405-7.604,7.604v17.236c0,4.199,3.404,7.604,7.604,7.604s7.604-3.405,7.604-7.604
			v-17.236C308.414,454.348,305.01,450.943,300.811,450.943z"/>
	</g>
</g>
<g>
	<g>
		<path d="M269.965,450.943c-4.2,0-7.604,3.405-7.604,7.604v17.236c0,4.199,3.404,7.604,7.604,7.604c4.2,0,7.604-3.405,7.604-7.604
			v-17.236C277.569,454.348,274.165,450.943,269.965,450.943z"/>
	</g>
</g>
<g>
	<g>
		<path d="M239.12,402.656c-4.2,0-7.604,3.405-7.604,7.604v17.236c0,4.199,3.404,7.604,7.604,7.604s7.604-3.405,7.604-7.604V410.26
			C246.724,406.061,243.321,402.656,239.12,402.656z"/>
	</g>
</g>
<g>
	<g>
		<path d="M300.811,402.656c-4.2,0-7.604,3.405-7.604,7.604v17.236c0,4.199,3.404,7.604,7.604,7.604s7.604-3.405,7.604-7.604V410.26
			C308.414,406.061,305.01,402.656,300.811,402.656z"/>
	</g>
</g>
<g>
	<g>
		<path d="M269.965,402.656c-4.2,0-7.604,3.405-7.604,7.604v17.236c0,4.199,3.404,7.604,7.604,7.604c4.2,0,7.604-3.405,7.604-7.604
			V410.26C277.569,406.061,274.165,402.656,269.965,402.656z"/>
	</g>
</g>
<g>
</g>
<g>
</g>
<g>
</g>
<g>
</g>
<g>
</g>
<g>
</g>
<g>
</g>
<g>
</g>
<g>
</g>
<g>
</g>
<g>
</g>
<g>
</g>
<g>
</g>
<g>
</g>
<g>
</g>
</svg>
