<svg xmlns="http://www.w3.org/2000/svg" viewBox="0 0 512 512"><path d="M436.5 291.5h-149.1c-0.6-5.6-1.4-10.6-2.5-15.1 4 2.1 8.4 3.1 12.8 3.1 8.2 0 16.3-3.5 21.7-10.3l22.1-27.5c0 0 15.2 6.2 20.2 24.9 2 7.6 8.2 6.2 8.7 6.1 4.1-0.7 6.8-4.6 6.1-8.7 -2.8-15.7-13.1-29-27.7-35.5l-27.8-12.4c24.6-24.3 25.7-66.2 25.7-66.2 2.7-1.2 13.7-5.8 11.2-20.8 -1.2-7.1-1.2-14.5 0-22 2.1-12.6 1.3-33.1-7.1-52.8 -1.6-3.8-6-5.6-9.8-4 -3.8 1.6-5.6 6-4 9.8 7.1 16.8 7.8 34 6.1 44.5 -1.5 9.2-1.5 18.3 0 27 0.3 1.7 0 4.7-3.9 4.9 -53.6 1.8-92.8-13.9-116.3-45.4 -17.1-22.9-19.5-46.6-19.7-48.3 0-2.6 2.7-7.5 10.6-13 19.1-13.3 55-20.8 84-8.6 8.4 3.5 15.9 8.3 22.1 14.2 3 2.8 7.8 2.7 10.6-0.4 2.8-3 2.7-7.8-0.4-10.6 -7.6-7.1-16.5-12.8-26.6-17 -34.3-14.4-75.5-5.8-98.4 10.1 -9.3 6.5-15 13.8-16.6 21.1 -25.5 15.5-35.5 46.6-28.3 88.2 0.7 3.8 2.4 7.2 4.8 9.9v16.3c0 2.3 0.2 6.8 0.2 6.8l-19.3 0c-12.2 0-22.5 8.3-25.6 19.5 -16 2.4-28.4 16.3-28.4 33v79.3H75.5c-22 0-39.9 17.9-39.9 39.9 0 20.7 15.8 37.7 35.9 39.7v112.5c0 15.6 12.7 28.4 28.4 28.4h312.2c15.6 0 28.4-12.7 28.4-28.4V371.1c20.1-2 35.9-19 35.9-39.7C476.4 309.4 458.5 291.5 436.5 291.5zM327.3 235.4l-19.6 24.4c-4.3 5.4-12.3 6.3-17.8 2.1l-13.6-10.6c0 0 7.1-11.2 7.5-12 8.9-2.9 17.2-7.1 24.7-12.4L327.3 235.4zM213.7 103.6c11.3 13.9 25.6 25 42.6 33 21.1 9.9 46.5 14.9 75.4 15 0 0-3.3 77.1-75.7 77.1 -26.8 0-51.8-14.4-65.4-37.7 0.3-1.5 0.4-3 0.4-4.5 0-8.2-3.7-15.5-9.6-20.4 -0.8-4.3-1.1-8.7-1.1-13.1v-9.9c5.4-0.1 10.6-2.5 14.3-6.7C204.4 125.1 210.2 113.3 213.7 103.6zM256 270.6c3.6 0 7.1-1.4 9.7-3.8 2.8 5.8 5.4 13.8 6.6 24.7H239.7c1.2-10.9 3.8-18.9 6.6-24.7C248.9 269.2 252.4 270.6 256 270.6zM248.5 243.3c2.5 0.2 5 0.3 7.5 0.3 2.5 0 5-0.1 7.5-0.3L256 255 248.5 243.3zM222.2 261.9c-5.5 4.3-13.5 3.3-17.8-2.1l-19.6-24.4 19-8.5c7.5 5.3 15.8 9.5 24.6 12.3 0.3 0.8 7.5 12 7.5 12L222.2 261.9zM227.2 276.4c-1.3 5.2-2.1 10.3-2.5 15.1h-74.8v-19.2c0-22.7 20.7-30.6 20.7-30.6l22.1 27.5c5.5 6.8 13.6 10.3 21.7 10.3C218.8 279.6 223.2 278.5 227.2 276.4zM190.4 55.9c1.9 8.1 5.5 19.4 12.3 31.5 -1.7 8.5-6.5 24.5-19.4 39 -1.8 2-4 1.7-4.8 1.4 -0.8-0.2-2.8-1.1-3.3-3.6C168.6 86.4 178.3 66.4 190.4 55.9zM146.2 174.8h18.1c6.4 0 11.6 5.2 11.6 11.6 0 6.4-5.2 11.6-11.6 11.6h-18.1c-6.4 0-11.6-5.2-11.6-11.6C134.6 180 139.8 174.8 146.2 174.8zM120.9 194.5c3.4 10.7 13.5 18.5 25.4 18.5h18.1c7 0 13.4-2.7 18.1-7.1 2.6 3.6 5.5 7.1 8.6 10.2l-27.8 12.4c-17.3 7.7-28.4 24.9-28.4 43.8v19.2h-27.7v-79.3h0C107.2 203.8 113 196.6 120.9 194.5zM436.5 356.3H139.5c-4.1 0-7.5 3.4-7.5 7.5s3.4 7.5 7.5 7.5H425.4v112.4c0 7.4-6 13.4-13.3 13.4H99.9c-7.4 0-13.3-6-13.3-13.3V371.3h18.4c4.1 0 7.5-3.4 7.5-7.5s-3.4-7.5-7.5-7.5H75.5c-13.7 0-24.9-11.2-24.9-24.9s11.2-24.9 24.9-24.9h361c13.7 0 24.9 11.2 24.9 24.9S450.2 356.3 436.5 356.3z"/></svg>