<?xml version="1.0" encoding="iso-8859-1"?>
<!-- Generator: Adobe Illustrator 19.0.0, SVG Export Plug-In . SVG Version: 6.00 Build 0)  -->
<svg version="1.1" id="Capa_1" xmlns="http://www.w3.org/2000/svg" xmlns:xlink="http://www.w3.org/1999/xlink" x="0px" y="0px"
	 viewBox="0 0 511.999 511.999" style="enable-background:new 0 0 511.999 511.999;" xml:space="preserve">
<g>
	<g>
		<path d="M502.708,293.301c-23.613-13.533-48.949-30.085-75.489-49.298c8.956-3.602,15.296-12.37,15.296-22.599v-56.063
			c0-13.428-10.924-24.353-24.353-24.353h-20.276c28.863-24.169,33.945-67.147,10.933-97.437
			c-23.704-31.201-68.372-37.299-99.57-13.597c-15.769,11.979-39.275,40.803-53.251,69.962
			c-13.977-29.147-37.582-58.06-53.248-69.962c-31.201-23.704-75.867-17.602-99.571,13.597C92.358,57.796,87.329,75.444,89.02,93.24
			c0.393,4.124,4.052,7.151,8.176,6.758c4.124-0.393,7.149-4.053,6.758-8.176c-0.69-7.262,0.05-14.487,2.095-21.331
			c5.286-8.506,11.841-13.374,20.026-14.85c5.585-1.007,11.405-0.359,16.941,1.119c-4.024,2.258-7.581,5.331-10.451,9.111
			c-11.394,14.999-8.462,36.472,6.537,47.865c7.797,5.924,26.276,15.186,48.427,21.527c7.604,2.176,21.164,5.384,21.11,5.725
			h-66.564c-6.547-3.333-12.132-6.705-16.221-9.812c-5.269-4.003-9.732-8.824-13.269-14.331c-2.238-3.486-6.88-4.496-10.362-2.258
			c-3.485,2.238-4.496,6.878-2.258,10.362c3.876,6.038,8.63,11.417,14.151,16.037H93.837c-13.428,0-24.353,10.924-24.353,24.353
			v56.063c0,10.229,6.341,18.997,15.296,22.599c-26.543,19.213-51.879,35.765-75.489,49.298
			c-7.104,4.071-10.581,11.879-8.855,19.893c1.73,8.036,8.131,13.737,16.307,14.527l18.47,1.781l-8.866,20.911
			c-3.136,7.397-1.294,15.638,4.692,20.992c3.518,3.146,12.161,7.259,21.399,2.334c15.222-8.115,30.287-17.805,45.485-27.862
			v123.297c0,15.065,12.257,27.323,27.323,27.323h261.506c15.065,0,27.323-12.257,27.323-27.323V252.99
			c28.552,20.874,55.813,38.789,81.174,53.323c1.899,1.089,1.85,2.8,1.65,3.723c-0.162,0.755-0.788,2.533-3.083,2.754l-28.645,2.763
			c-2.378,0.229-4.504,1.578-5.726,3.63c-1.221,2.053-1.392,4.564-0.46,6.764l12.854,30.323c0.848,1.999-0.189,3.338-0.883,3.958
			c-0.695,0.623-2.146,1.507-4.048,0.439c-9.382-5.275-19.02-11.008-28.646-17.038c-3.509-2.198-8.14-1.136-10.336,2.374
			c-2.199,3.51-1.137,8.139,2.374,10.336c9.827,6.157,19.499,12.326,29.258,17.401c9.321,4.848,17.883,0.812,21.399-2.334
			c5.986-5.354,7.828-13.595,4.692-20.992l-8.866-20.911l18.471-1.782c8.176-0.789,14.575-6.491,16.306-14.526
			C513.289,305.18,509.812,297.372,502.708,293.301z M256,115.532c15.592,0,28.68,10.886,32.084,25.456h-64.169
			C227.32,126.419,240.408,115.532,256,115.532z M128.073,40.306c19.387-13.267,45.897-13.38,65.604,1.59
			c13.649,10.371,34.065,35.253,47.135,61.116c-7.12,2.385-13.505,6.384-18.702,11.579C196.757,56.24,154.081,38.397,128.073,40.306
			z M191.653,120.843c-19.183-5.492-36.72-13.914-43.48-19.051c-8.413-6.391-10.058-18.435-3.666-26.848
			c3.764-4.955,9.488-7.562,15.277-7.562c4.04,0,8.111,1.27,11.569,3.896c6.762,5.136,19.577,19.771,30.011,36.779
			c3.674,5.989,6.724,11.684,9.104,16.997C204.724,124.191,198.422,122.78,191.653,120.843z M97.922,327.813
			c-17.625,11.99-35.382,23.041-52.835,32.852c-1.902,1.067-3.354,0.184-4.048-0.439c-0.693-0.62-1.73-1.959-0.883-3.958
			l12.854-30.323c0.932-2.199,0.761-4.711-0.46-6.764c-1.222-2.052-3.348-3.4-5.726-3.63l-28.644-2.762
			c-2.296-0.222-2.922-2-3.084-2.755c-0.199-0.923-0.249-2.634,1.65-3.723c25.358-14.533,52.621-32.448,81.174-53.324V327.813z
			 M93.837,230.756c-5.157,0-9.354-4.196-9.354-9.354V165.34h0.001c0-5.157,4.196-9.354,9.354-9.354h114.208v74.769H93.837z
			 M288.955,481.498h-65.911v-37.012c0-4.143-3.357-7.5-7.5-7.5c-4.143,0-7.5,3.357-7.5,7.5v37.012h-82.798
			c-6.796,0-12.323-5.528-12.323-12.323V245.756h95.122v166.447c0,4.143,3.357,7.5,7.5,7.5c4.143,0,7.5-3.357,7.5-7.5V245.756
			h65.911V481.498z M288.955,230.757h-65.911v-74.769h65.911V230.757z M271.189,103.013c13.004-25.645,33.698-50.91,47.134-61.117
			c19.707-14.97,46.219-14.857,65.606-1.589c-26.008-1.906-64.169,7.355-94.04,74.285
			C284.694,109.396,278.308,105.397,271.189,103.013z M310.635,108.06c10.434-17.008,23.249-31.645,30.012-36.779
			c3.458-2.628,7.528-3.896,11.568-3.896c5.789,0,11.515,2.606,15.277,7.562c6.392,8.413,4.747,20.457-3.666,26.849
			c-6.761,5.136-24.298,13.558-43.479,19.049c-7.604,2.175-13.872,3.458-18.815,4.207
			C303.908,119.75,306.956,114.059,310.635,108.06z M324.475,135.262c22.149-6.341,40.629-15.603,48.426-21.525
			c7.257-5.513,11.933-13.532,13.168-22.581c1.236-9.049-1.119-18.028-6.632-25.285c-2.857-3.761-6.392-6.822-10.39-9.077
			c5.609-1.494,11.407-2.13,16.838-1.16c8.196,1.464,14.76,6.328,20.051,14.831c6.479,21.735-0.689,46.201-19.788,60.71
			c-4.086,3.104-9.679,6.479-16.224,9.812h-66.561C303.31,140.644,316.842,137.447,324.475,135.262z M399.076,469.175
			c0,6.796-5.528,12.323-12.323,12.323h-82.798V245.756h95.122V469.175z M418.162,230.758H303.955v-74.77h73.43h3.926h36.852v-0.001
			c5.157,0,9.354,4.196,9.354,9.354v56.063C427.516,226.561,423.32,230.758,418.162,230.758z"/>
	</g>
</g>
<g>
</g>
<g>
</g>
<g>
</g>
<g>
</g>
<g>
</g>
<g>
</g>
<g>
</g>
<g>
</g>
<g>
</g>
<g>
</g>
<g>
</g>
<g>
</g>
<g>
</g>
<g>
</g>
<g>
</g>
</svg>
